<?xml version="1.0" encoding="utf-8"?>
<svg version="1.1" id="colombia" xmlns:cc="http://creativecommons.org/ns#" xmlns:dc="http://purl.org/dc/elements/1.1/" xmlns:inkscape="http://www.inkscape.org/namespaces/inkscape" xmlns:rdf="http://www.w3.org/1999/02/22-rdf-syntax-ns#" xmlns:sodipodi="http://sodipodi.sourceforge.net/DTD/sodipodi-0.dtd" xmlns:svg="http://www.w3.org/2000/svg" xmlns="http://www.w3.org/2000/svg" xmlns:xlink="http://www.w3.org/1999/xlink" x="0px" y="0px" viewBox="0 0 986 1424" xml:space="preserve">
<style>
  path{fill:grey}
</style>
<path id="divi-91" d="M751.2,1308c18.2-96.7,19.4-103.8,19.5-115.6c0.1-8.2-0.2-12.6-0.9-12.6c-0.6,0-1,1.8-1,4
	c0,3.4-0.4,4.2-2.7,5c-2,0.8-3.4,0.6-5.8-0.5c-2.9-1.4-3.1-1.4-3.6,0.7c-0.4,1.5-1.4,2.3-3.4,2.5c-4.1,0.5-4.9-0.9-3.1-5.1
	c2.1-5,1.9-5.7-1.4-5.7c-3.5,0-4.5-1.3-3.1-4c1.7-3.2-1.6-2.6-4.6,0.9c-1.8,2.1-3.6,3-6.7,3.3c-2.3,0.2-4.6,0.3-5,0.1
	c-1.1-0.6,2.9-8,4.9-9.1c2.5-1.4,0-2.3-4.4-1.6c-5.6,0.9-6.6,1.7-5.4,4.1c0.9,1.7,0.4,2.6-3.1,6l-4.2,4.1l-4.4-3.8
	c-2.7-2.3-3.9-4.1-3.2-4.5c1.8-1.1,1.3-2.6-0.9-2.6c-3.5,0-4.3-3.3-1.5-7c2.1-2.8,2.3-3.6,1.1-4.9c-2.1-2.5-3.5-7.6-2.5-9.2
	c0.5-0.8,0.9-3.1,0.9-5.1c0-3.3-0.3-3.8-2.3-3.8c-4,0-3.9-1.2,0.6-5.8l4.3-4.4l-3,0.7c-3.4,0.8-9.1,0.9-11.1,0.1
	c-0.8-0.3-1.4-1.8-1.4-3.3c0-1.8-0.9-3.4-2.4-4.5c-2.3-1.7-2.5-1.7-5.9,0.3l-3.5,2.1l-1.1-2.1c-0.6-1.1-1.8-2.1-2.7-2.1
	s-2.5-0.8-3.5-1.7c-1.7-1.5-2-1.5-2.8-0.2c-2.5,4.4-3.5,5-6.5,4.2c-2.7-0.7-3.1-1.3-3.6-5.6c-0.4-3.5-1.2-5.4-3.1-6.9
	c-2.1-1.7-2.5-2.8-2.1-5.6c0.4-2.8-0.1-4-2.1-5.9c-1.9-1.8-2.9-2.1-3.9-1.3c-2.3,1.9-8.8-0.7-9.9-3.9c-0.9-2.4-1.5-2.7-6.6-3.1
	c-3.1-0.2-6,0.1-6.4,0.6s-4.4,2-8.9,3.2c-10.5,2.9-20,9.1-22.5,14.6c-2.4,5.4-7.1,7.7-12.9,6.4c-5.1-1.2-7.5-0.5-7.5,2.3
	c0,1.4-1.3,2.7-4.4,4.2c-3.9,1.9-4.8,3.1-8.8,11.1c-3.6,7.3-5.1,9.3-8,10.8l-3.6,1.8l-2.3-2.5c-3.2-3.4-5-3-8.7,2.1
	c-4.6,6.2-7.8,6.2-12.7-0.2c-5.7-7.5-6.6-7.8-12.3-4.9l-4.9,2.5l-2.9-2.4c-3.8-3.1-6.8-3.1-8.2,0c-1.6,3.5-8,3.4-14.2-0.1
	c-3.1-1.8-8.1-3.2-16-4.5c-13.7-2.3-14.4-2.5-13.7-4.3c0.4-1-0.9-1.9-4.1-3c-2.5-0.9-5.5-1.6-6.6-1.6c-1.4,0-43.6,11.6-45.3,12.4
	c-0.1,0,0.4,2.8,1,6.2c0.8,4.4,2.1,7.4,4.5,10.3c2.8,3.5,3.2,4.6,2.4,6.4c-1.6,3.5,1,7.1,7.7,10.5c5.1,2.6,6.1,2.8,7.1,1.6
	c1.9-2.3,3.7-1.7,4.5,1.6c0.6,2.5,1.1,3,3.8,3.1c2.6,0,3.9,1,7.5,5.5c3.7,4.7,4.6,5.3,6.3,4.4c1.1-0.6,3.4-0.8,5.2-0.4
	c3.7,0.7,10.7,9,16.6,19.7l3.4,6.1l-2.1,4.4c-1.2,2.4-2.1,4.8-2.1,5.2s2.5,2.5,5.5,4.5l5.5,3.7l5.5-1.6c5.4-1.6,5.5-1.6,8.4,0.7
	c3.5,2.8,5.7,7.6,6.6,14.2c0.4,2.7,1.3,6.3,2.2,8.1c1.5,3.1,1.4,3.3-2.1,8.2l-3.6,5l3.2,3.1c2.3,2.1,4.6,3.3,8,3.7
	c4,0.6,4.8,1,4.8,2.9c0,4.3,1.1,4.7,7.4,3.1c5.3-1.4,5.9-1.4,7,0.1s1.5,1.3,3.7-1.9c2.7-4,4-4.4,6-2c1.1,1.3,2.6,1.5,8.9,0.9
	c7.5-0.7,7.6-0.6,8.8,1.9c0.9,2,1.9,2.5,4.4,2.5c7-0.1,11.2-1.8,15.6-6.4c3.8-4,4.8-4.6,8.6-4.6c4,0,4.7-0.5,11.5-7.5
	c4-4.1,7.6-7.5,8.1-7.5s1.1,1.4,1.5,3.1c0.6,2.7,1,3,3.3,2.6c3.5-0.7,10.8,2.3,12.3,5.1c1.4,2.5,2.9,2.1,2.9-0.8
	c0-4.1,2.8-1.9,4,3.1c1,4.1,1.5,4.9,2.8,4.4c0.9-0.4,5.4-0.9,9.9-1.2c7.6-0.5,8.3-0.7,8.8-2.8c0.5-1.9,1.4-2.4,4.7-2.6
	c3.4-0.3,4.2-0.7,4.5-2.6c0.4-2.5,2.4-2.9,4.1-0.8c0.9,1.1,2,1.2,4.4,0.5c4.2-1.2,4.7-1.2,4.7,0.4c0,0.7,2.3,2.4,5.2,3.8
	c5.9,2.7,8.6,5.2,10,9.1c1.4,4,3.8,4.5,3.8,0.8c0-3.5,2.5-4.1,3.5-0.9c1.1,3.5,6.3,5.9,12.7,5.9c5.9,0,7.2,1.1,4.5,3.9
	c-1,1-0.5,1.1,2.5,0.6c3.1-0.6,3.8-0.4,3.8,0.9c0,0.9,1.3,3,2.8,4.7c2.4,2.7,3.1,3,4.9,2c3.4-1.8,3.9-1.4,4.6,3.3
	c0.6,4.5,0.6,4.5-24,42.7c-18.8,29.3-24.4,38.6-23.6,39.8c0.5,0.8,2.9,1.8,5.4,2.1s5.7,1.1,7.3,1.8c2.5,1,3.5,0.8,8.3-1.8
	c4.2-2.3,6.2-2.8,8.6-2.3c5.8,1.1,9.2,4.2,11.2,10.1c1.8,5.3,12.6,20.3,13.2,18.4C731.7,1411.5,740.6,1364.7,751.2,1308z"/>
<path id="divi-97" d="M754.8,1186.8c0-2.8,1.3-3.2,5.4-1.6c5,2.1,5.6,1.9,5.7-1.8c0-1.8,0.9-4.4,1.9-5.7l1.9-2.5l-3.3-4
	c-1.8-2.2-4.1-5.6-5-7.5s-2.9-4.7-4.4-6.3c-2.5-2.7-2.5-2.8-0.9-5.7c1.1-1.9,1.7-5,1.7-9.2v-6.3l-9.7-4.8c-5.4-2.6-10.3-4.8-11-4.8
	c-1.8,0.1-8.4-7.5-10.3-11.9c-0.9-2.1-2.2-4.1-2.8-4.5c-0.8-0.5-1.1-8.5-1.1-25.5v-24.8l4.8-2.1c2.6-1.2,7.2-2.6,10.2-3.2
	c9.5-2,10.5-2.4,10.8-4.7c0.4-2.7,2.3-2.9,4.6-0.3c1.7,1.9,1.8,1.9,6.9-1.5c7.6-5.1,7.4-5.1,11.8-0.8c3.2,3.1,4.1,3.6,4.9,2.4
	c0.8-1.2,1.5-1.2,4.8,0.4c5.9,2.6,11.1,0.4,6.2-2.6c-2.5-1.6-2.5-2.3-0.1-5.7c2.9-4,3.5-7.5,1.6-9c-0.9-0.7-1.6-2.6-1.6-4.2
	c0-3.5-3.6-7.2-8.7-8.9c-3-1-3.8-0.9-5.5,0.7c-1.6,1.4-2.4,1.6-3.8,0.7c-1.3-0.8-3.1-0.8-6.1-0.2c-3.8,0.8-4.4,0.7-5.7-1.1
	c-1-1.5-2.5-2-5.3-2c-2.1,0-4.2-0.5-4.5-1.1c-0.4-0.7-1.9-0.1-4,1.5c-1.8,1.4-3.8,2.6-4.4,2.6c-0.7,0-1.1-7.8-1.1-24.5v-24.5
	l-5.2-1.5c-2.8-0.8-6.4-1.5-7.9-1.5c-1.9,0-3.6-1-5.4-3.2c-1.5-1.8-3.6-3.6-4.6-4c-2.7-1-2.6-8.3,0.1-10c2.2-1.4,2.8-6.8,0.8-6.7
	c-0.7,0-2.4,0.9-3.8,2c-1.6,1.3-4.1,2-7,2c-2.5,0-5.4,0.7-6.4,1.5s-5.8,2.6-10.5,4.1c-7.7,2.4-9.5,2.5-18.1,1.9l-9.6-0.7l-5.4,5.4
	c-3.9,3.9-6.9,5.9-10.9,7.2c-3,1-6.8,2.6-8.4,3.6c-2.9,1.7-3.1,1.7-6.1-0.1l-3.1-1.9l-2,2.7c-3.4,4.6-5.3,9-5.3,12.3
	c0,1.7-1.9,7.1-4.1,12l-4.1,8.9l2.1,3.9c2.3,4.4,2.1,5.1-1.9,5.1c-2.4,0-2.9,0.5-3.4,3.5c-0.4,2.3-1.9,4.5-4.3,6.5
	c-3.1,2.6-3.8,2.8-5,1.5c-1.3-1.3-1.7-0.8-3.6,3.3c-1.4,3-5.2,7.5-10.4,12.4l-8.2,7.7l1.3,4c1,3.1,1.8,4.1,3.8,4.3
	c2,0.2,2.6,0.9,2.8,3.5c0.2,2.1,0.9,3.2,1.8,3.2c0.8,0,2,1.3,2.5,2.9c0.9,2.5,1.6,3,5.2,3.2c3.9,0.3,4.2,0.5,4.5,3.6
	c0.3,3.6,4.6,7.6,9.4,8.8c1.5,0.4,3.1,1.4,3.6,2.2c0.7,1.2,1.7,1.3,5.7,0.4c4.5-1,5.3-0.8,9.1,1.4c2.3,1.4,4.2,2.9,4.2,3.4
	s2.2,1,5,1c4.7,0,5.1,0.2,6.4,3.4c1.6,3.8,5.8,5.4,7.8,2.9c1-1.2,1.9-0.7,5.6,2.9c3.6,3.6,4.3,4.9,4.1,7.5c-0.2,2.4,0.3,3.6,1.9,4.8
	c1.5,1.1,2.2,2.6,2.2,4.9c0,7.3,2.6,8.6,6,3l2.2-3.6l2.2,2.1c1.2,1.1,3.2,2.1,4.3,2.1c1.2,0,2.6,0.9,3.2,2c1,1.9,1.1,1.9,4.3,0
	l3.3-1.9l3.7,3.1c2.5,2.1,3.7,3.9,3.7,5.6c0,2.4,0.3,2.5,3.8,2c2.1-0.3,5.2-0.8,7-1.2s4-0.4,4.9,0c1.4,0.5,1,1.4-2.6,5
	c-4,4.1-4.1,4.4-2.1,4.9s2.1,1.1,1.7,5.4c-0.3,2.6-0.8,6-1.2,7.4c-0.5,1.9-0.1,3.3,1.8,5.6l2.5,3l-2.5,4.2l-2.5,4.2h3.4
	c4.4,0,5,0.7,3,3.7c-1.5,2.3-1.5,2.6,0.8,4.9l2.5,2.5l2.8-2.9c2.7-2.8,2.7-3,1.2-5.4c-2-3.1-1.4-3.5,6.8-5.3c5.6-1.2,6.2-1.1,9,0.8
	c2.8,2,2.8,2.1,1,3.4c-5.8,4.1-6.9,6.3-3.4,6.3c1.1,0,3.4-1.6,5.2-3.5c2.1-2.3,4.1-3.5,5.9-3.5c3.5,0,4.1,0.7,3,3.5
	c-0.8,2.1-0.6,2.4,2.3,2.6c2.7,0.3,3.2,0.7,3.1,2.8c-0.1,1.4-0.4,3.7-0.9,5.2c-0.5,1.8-0.4,2.8,0.3,2.8
	C754.3,1188.8,754.8,1187.9,754.8,1186.8z"/>
<path id="divi-18" d="M539.6,1146.2c3.8-5.1,5.5-5.5,9.3-1.9c4.2,4,6.7,2.1,12-8.7c3.7-7.5,5.1-9.3,8.4-11.2
	c2.6-1.4,4.1-3,4.3-4.5c0.5-3.2,4.4-4.5,9.2-3c5.4,1.6,9.2-0.1,11.5-5.2c2.6-5.8,12.8-12.6,22.4-15.1c10.4-2.7,12.7-5,7.5-7.7
	c-1.9-1-3.7-1.1-7.7-0.3c-5,1-5.4,0.9-7.5-1.4c-1.2-1.3-2.7-2.4-3.3-2.4s-3.1-1.3-5.4-3c-3.6-2.5-4.2-3.4-3.8-5.5
	c0.5-2.4,0.2-2.5-3.6-2.5s-4.2-0.3-5.6-3.6c-0.8-2-1.9-3.3-2.4-3c-1.3,0.8-2.5-1.3-2.5-4.4c0-2-0.7-2.6-3-3s-3.1-1.2-3.6-3.5
	c-0.4-1.6-1.4-4.7-2.3-6.7c-1.8-4-4-4.7-9.1-2.8c-2.3,0.9-2.8,0.7-4.3-1.9c-0.9-1.6-2.7-3.4-4-4c-1.2-0.6-2.3-1.9-2.3-3
	c0-1.2-1.2-2.6-2.9-3.5s-3.4-2.8-4-4.8c-1.2-3.6-13.7-15.5-18.3-17.5c-2.3-1-3.4-1-5.6,0.2c-2.3,1.2-3,1.2-4.5,0
	c-1.6-1.2-2.1-1-4.3,1.6c-2.1,2.5-2.3,3.4-1.4,5.9c1,2.9,0.9,3.1-3.4,5.6c-2.4,1.4-4.4,3-4.4,3.4c0,0.5-1.3,1.7-2.8,2.8
	c-2.6,1.8-3.3,1.9-8.2,0.8c-5.1-1.1-5.5-1.4-5.8-4.5c-0.3-2.8-1.2-3.9-7.1-7.6c-8.2-5.3-12.8-10.8-13.7-16.5
	c-0.7-4.4-9.6-17-13.4-19.1c-1.3-0.7-1.9-2.1-1.9-4c0-2.8-0.2-3-4-3c-2.2,0-6.9,1.1-10.4,2.4c-6.4,2.4-6.4,2.4-8.3,0.4
	c-1-1.1-3.4-2.7-5.3-3.4c-1.9-0.8-5.3-3-7.7-4.9c-5.2-4.2-6.5-4.7-18.3-7c-9.3-1.8-9.3-1.8-12.1-6.3c-2-3.2-3-6.3-3.4-11.2
	c-0.3-3.7-2.2-11.5-4-17.4c-2.9-9.1-3.3-11.7-2.9-17.4c0.4-6,0.9-7.1,4-10.4c3.1-3.2,3.4-4,2.7-7.4c-0.5-2.8-1.5-4.2-3.8-5.4
	c-1.7-0.9-4.6-3.1-6.5-4.9s-4.2-3.2-5.1-3.2c-1,0-2.6-0.9-3.6-2.1c-1.8-2-1.9-2-3.2-0.3c-0.7,1-1.3,2.9-1.3,4.4c0,1.8-1.5,4-4.6,7.1
	c-4.3,4.2-4.6,4.7-4.1,8.6c0.6,6-3.3,10.6-10.4,12.3c-5,1.2-5.2,1.4-8,7.5c-1.6,3.4-5,8.7-7.7,11.6c-2.7,3-6.6,8.7-8.8,12.8
	c-2.9,5.4-5.4,8.5-9.4,11.7c-3,2.4-7.6,7-10.1,10.1c-2.6,3.2-7.5,9.4-11.1,13.8l-6.4,8l-6.4,0.1l-6.4,0.1l-2.8,4.4
	c-1.5,2.4-3.5,6-4.3,7.9c-1.4,3.3-1.4,3.6,0.5,4.9c1.1,0.8,2.1,2.4,2.1,3.6c0,1.5,0.6,2.2,1.7,2.1c1.1-0.1,1.9,0.7,2,1.9
	c0.5,3.3,5.9,5.9,13.7,6.4l7,0.5l0.6,4.2c0.7,4.9,3.3,8.3,6.5,8.3c1.3,0,2.6,0.4,2.9,1s3,1,6,1s5.7,0.4,6,1s2,1,3.6,1
	c2.2,0,3.2,0.6,3.9,2.4c1,2.7,5.9,4.2,10.8,3.3c4.2-0.8,8.3,1.8,8.3,5.2c0,1.6,0.7,3.4,1.5,4.1s1.5,2.5,1.5,4c0,3.6,2,5.1,7.8,6.1
	c2.6,0.4,6,1.3,7.6,1.9c2.8,1.1,2.9,1.2,2.5,8.3l-0.4,7.2l4,0.3c2.2,0.2,4.8,1,5.7,1.9c1.1,1,2.8,1.4,5,1c2.6-0.4,4,0.1,6.7,2.3
	l3.4,2.8l-0.7,7.8c-0.6,7.1-0.5,7.9,1.4,9.1c1.1,0.7,2,1.9,2,2.7c0,1.9,2.9,1.9,10,0c3.2-0.9,5.8-1.1,6.4-0.6c0.5,0.5,2,0.5,3.5-0.1
	c2.2-0.8,2.9-0.6,4.4,1.3c1,1.3,2.1,3.6,2.4,5.1c0.5,2.4,1,2.7,3,2.2c1.6-0.4,2.6-0.1,3,0.9c0.3,0.9,1.8,1.5,3.4,1.5
	c1.8,0,3.4,0.8,4.3,2.1c2.3,3.2,6.8,5.8,10.1,5.9c1.6,0,6.3,1.1,10.3,2.5s8,2.5,8.8,2.5c2.7,0,7.5,3.1,7,4.5c-0.4,1,2.3,1.7,10.7,3
	c7.4,1.1,12.7,2.5,15.6,4.1c6,3.3,11.4,3.3,12.9-0.1c1.5-3.3,5.5-3.3,9.8,0l3.3,2.5l5.1-2.6l5.1-2.6l5,5.1c2.7,2.8,5,5.5,5,6
	s1.2,0.9,2.8,0.9C535.6,1150.7,537.1,1149.6,539.6,1146.2z"/>
<path id="divi-86" d="M419,1135.1c12.2-3.5,19.4-6.1,18.8-6.6c-0.5-0.5-3.2-1.1-6-1.4c-3.8-0.4-5.9-1.3-9-3.9
	c-2.3-2-5-3.4-6.6-3.4c-1.4,0-2.9-0.7-3.2-1.5c-0.4-1-1.6-1.4-3.7-1.2c-2.9,0.3-3.1,0-3.7-3.5c-0.8-5-1.8-5.9-5.6-4.8
	c-1.7,0.5-3.5,0.5-4,0.1s-3.9-0.1-7.6,0.7c-7.3,1.7-9.7,1.3-9.7-1.3c0-0.9-0.8-2.6-1.7-3.6c-1.4-1.5-1.7-3.4-1.4-9.6
	c0.3-6.7,0-7.9-1.8-9.6c-1.6-1.4-3-1.7-6-1.3c-2.7,0.4-4.3,0.1-5.1-0.9c-0.6-0.8-2.6-1.4-4.3-1.4c-5.8,0-7.1-1.9-6.7-9.5
	c0.4-7.7-0.2-8.4-6.4-8.4c-2.6,0-5.3-0.9-7.8-2.6c-3.1-2.1-3.7-3.1-3.7-5.9c0-1.8-0.6-3.9-1.4-4.5s-1.6-2.4-1.8-3.9
	c-0.3-2.6-0.6-2.7-6.3-2.8c-7-0.1-11.5-1.7-11.5-3.8c0-1-1-1.5-2.9-1.5c-1.6,0-3.2-0.4-3.6-1s-2.7-1-5.3-1c-2.6,0-5.6-0.7-6.6-1.5
	c-1.1-0.8-3-1.5-4.2-1.5c-2.6,0-7.3-6.2-7.3-9.6c0-1.9-0.6-2.2-5.1-2.5c-4.7-0.3-5.2-0.1-6.5,2.4c-1,2-2.2,2.8-4.1,2.8
	c-1.5,0-3.5,0.6-4.5,1.4c-3.4,2.6-13.4,0.3-19.6-4.5c-1.3-1-3.2-1.9-4.2-1.9c-3,0-4.7-5.6-4.1-13.6c0.5-6.5,0.3-7.2-2.2-10.2
	c-1.5-1.8-3.3-3.2-4.1-3.2s-2.5,2.2-3.9,4.9l-2.5,4.9l-7.8,0.7c-6.5,0.6-8.6,1.2-12.6,3.9c-2.6,1.8-4.7,3.9-4.7,4.7s0.9,4,2,7
	c3.1,8.9,2.8,10.7-3.8,18c-8.1,9.1-8.5,9.9-5.5,12.3c3.4,2.6,8.2,13.1,8.5,18.6c0.3,4.2,0.5,4.5,4.5,5.9c3.3,1.2,4.4,2.2,4.8,4.3
	c0.7,3.4,0.8,3.4,4.6,0.7c2.1-1.5,3.7-1.9,5.9-1.4c2.3,0.5,3,0.3,3-0.9c0-2.2,1.8-1.9,7.6,1.3c4.8,2.7,5.5,2.8,10.8,1.8l5.6-1v-4.8
	c0-3.9,0.3-4.8,1.7-4.8c0.9,0,2.7-0.9,3.9-2.1l2.2-2.1l7.4,2.2c4.1,1.2,8,3.1,8.7,4.1s2.3,1.9,3.5,1.9c1.4,0.1,4.3,2.6,8.3,7.2
	c8.4,10,11.2,11.7,19,11.7c6,0,6.5,0.2,10.1,3.9c2.7,2.8,6.1,4.8,12.2,7l8.4,3.1l3.3-2.5c5.2-3.9,8-3.3,18.7,3.9l9.4,6.4l2.1-2.1
	c1.9-1.9,2.4-2,4.6-0.8c1.6,0.9,2.7,2.5,3.1,4.9c1.2,6.5,1.4,6.9,6.5,8.1c3,0.7,5.9,2.3,7.7,4.2c1.6,1.6,4.4,4,6.4,5.1
	c1.9,1.2,4.1,2.9,4.8,3.9c0.7,1,1.6,1.8,2,1.8S408.1,1138.2,419,1135.1z"/>
<path id="divi-52" d="M194.8,1068.9c0-5.3-3.6-13-7.8-16.6l-3.5-3l4.5-6c2.5-3.3,5.7-7.1,7.1-8.4c3-2.8,3.4-7.2,1.2-13.6
	c-3.1-9.2-3.1-9,2.7-13.5c3.4-2.6,6.4-4,8.3-4c1.6,0,3.5-0.5,4.2-1.2c1.8-1.8,1.4-6.3-0.8-10l-2-3.3l3.6-3.7l3.6-3.7l-5-2.5
	c-2.8-1.4-5.9-3.7-7.1-5.1c-2-2.5-2.1-2.5-5-1c-2.1,1.1-5.9,1.6-12.4,1.6c-5.2,0-9.6-0.2-9.9-0.5c-1.1-1.1,1.9-11.9,4.3-14.8
	c4.2-5.3,4.2-5.4-0.5-9.7c-2.4-2.2-5-5.5-5.7-7.3s-2.1-4.5-3.2-6l-1.9-2.7l-5.8,2.9l-5.8,2.9l-5.6-4.7c-3.1-2.6-9.2-9.7-13.8-16.2
	c-4.5-6.3-8.7-11.8-9.2-12.2c-0.6-0.4-1.6-1.9-2.2-3.5l-1.2-2.8l-2.1,4.2c-3.3,6.3-4.6,6.4-7.6,0.6c-0.9-1.8-2.3-3.2-3.1-3.2
	c-0.8,0-3.1,2.2-5.2,4.9c-4.5,5.7-9.5,7.6-11.9,4.4c-1.3-1.7-1.5-1.7-3.2,0.3c-1,1.2-3.3,2.5-5.1,2.8c-2.7,0.6-3.7,1.6-5.6,5.7
	c-1.3,2.7-3,5.7-3.8,6.7c-0.8,0.9-1.8,3.1-2.2,4.9c-0.5,2.5-0.3,3.4,1.5,4.6c1.9,1.4,2,1.8,1,5.7c-1.1,4-1,4.4,1.4,6.9
	c1.4,1.5,2.6,3.7,2.6,4.9c0,1.5,0.6,2.2,2,2.2c1.9,0,2,0.4,1.4,5.2c-0.4,2.9-0.8,5.4-0.9,5.6c-0.1,0.2-2.9-0.2-6-0.8
	s-8.6-1.1-12.1-1.1h-6.3l-5.7,7c-3.1,3.9-5.5,7.1-5.3,7.3c0.2,0.1,2.4,1.6,4.9,3.2c5,3.3,8,6.1,8,7.3c0,1.9,16.9,16,22.9,19.1
	c3.6,1.9,7.2,4.3,8,5.3c3.5,5,5.9,6.9,9.7,7.6c5.4,1,19.7,9.9,22.4,14c2.5,3.9,4.9,4.1,18.1,1.8c4.7-0.8,8.7-1.5,9-1.5
	s1.1,1.6,1.8,3.5c0.9,2.5,1,4,0.2,5.5c-0.9,1.8-0.4,2.3,4.8,5.3l5.9,3.3l0.6,6c0.5,5.4,1,6.4,4.4,9.2c3.9,3.4,3.1,3.2,20.5,4.1
	C194.7,1072.8,194.8,1072.7,194.8,1068.9z"/>
<path id="divi-95" d="M589.7,1034.4c0.6-0.8,2.5-4.2,4.2-7.6c2.9-5.9,3.1-6.1,4.9-4.5c2.7,2.5,5.8,0.2,7.4-5.5
	c0.9-3.2,1.9-4.6,3.3-4.8c1.9-0.3,1.9-0.6,0.8-3.9c-1.1-3.3-1-4.1,2.6-11.4c2.1-4.3,3.9-9.3,3.9-11.1c0-4.3,2.9-10.5,7-15.2l3.2-3.7
	l3.3,2.1c3.1,1.9,3.5,1.9,5.7,0.5c1.3-0.8,4.8-2.4,7.8-3.5c3.7-1.3,7.3-3.7,11.1-7.3l5.6-5.4l10.2,0.4c11.4,0.5,20.4-1.3,27.6-5.5
	c2.4-1.4,5.7-2.4,8.1-2.4c2.6,0,5.1-0.8,7.3-2.5c1.8-1.4,3.7-2.3,4.1-2c0.4,0.2,2.4-1.1,4.6-2.9c3.8-3.3,3.8-3.4,2.1-5.9
	c-1.6-2.5-1.9-2.5-5-1.2c-2,0.8-5,1.2-7.5,0.8c-3.1-0.4-4.7-0.1-6,1c-1.6,1.5-2,1.5-4,0.1c-1.2-0.8-4.1-1.5-6.4-1.5s-6.4-0.2-9-0.6
	c-4.6-0.6-4.8-0.8-8.3-7.3c-5.5-10-8.3-13.5-10-12.1c-1.1,0.9-1.7,0.5-2.9-1.9l-1.6-3l4.3-2.7c11.7-7.4,20.8-13.4,20.8-13.7
	c0-0.2-1.1-1.2-2.5-2.1c-2.5-1.6-2.6-1.6-6,2c-3.7,4-2.8,3.8-14.5,1.8c-1.9-0.3-4.5-1.5-5.7-2.6c-1.8-1.6-2.5-1.8-4.2-0.8
	c-2.2,1.2-4.8,0.3-8.3-2.7c-1.4-1.3-2.2-1.3-4.8-0.2c-1.9,0.8-5.1,1.1-8.5,0.7c-4.6-0.5-6.2-0.2-9.6,1.8l-4.1,2.3l-3.6-2.3
	c-3.1-2-5-2.3-13.5-2.4c-5.5-0.1-10.5,0.4-11.1,0.9c-0.7,0.6-4.3,1.9-7.9,2.9l-6.7,1.9l-5.4-2.5c-5.8-2.7-7.4-2.4-7.4,1.1
	c0,3.2-0.5,3.4-5.4,2.3c-4-0.9-4.9-0.7-11.9,2.8c-4.1,2.1-8.5,5.1-9.7,6.6c-1.9,2.6-2.7,2.9-8.3,2.9c-3.4,0-7.3,0.6-8.7,1.4
	c-1.3,0.7-3,1.1-3.7,0.9s-3.5,0.3-6.3,1.2c-4.5,1.5-5,2-5,4.6c0,2.5-0.7,3.3-5.2,5.6c-4,2.1-6.5,2.7-10.3,2.5
	c-4.3-0.2-5.7,0.2-9.9,3.2l-4.8,3.4l-4.1-1.8c-2.3-1-6.5-2.1-9.3-2.5l-5.2-0.7l-0.5,5.3c-0.3,2.9-0.8,16-1.2,29.1l-0.6,23.8l7.1,8.7
	c5.5,6.8,7.2,9.6,7.7,13c0.9,5.9,5.1,10.8,14,16.6c6.3,4.1,7.4,5.2,7.4,7.6c0,2.5,0.4,2.9,4.2,3.5c3.8,0.6,4.4,0.4,6.8-2.3
	c1.5-1.6,4.1-3.7,5.8-4.6c3.5-1.8,3.6-1.9,2.1-4.7c-0.9-1.7-0.5-2.7,2.6-6.5c3.6-4.4,3.7-4.4,6.1-2.9c2.2,1.4,2.7,1.4,4.5,0.1
	c1.9-1.3,2.5-1.3,5.7,0c2,0.8,5.6,3.4,8.1,5.8c2.5,2.4,5.9,5.3,7.7,6.5s3.7,3.7,4.3,5.7c0.7,2.2,2.3,4.1,4.1,5
	c1.6,0.8,2.9,2.2,2.9,3.1s1.8,3.4,3.9,5.5c3.3,3.3,4.3,3.8,5.9,2.9c2.8-1.5,8.3-0.2,8.9,2.1c0.4,1.6,1.6,0.9,7.2-4.1
	C585.5,1038.5,589,1035.2,589.7,1034.4z"/>
<path id="divi-19" d="M262.3,1025.3c1.1-0.8,3-1.5,4.2-1.5c3,0,4.1-2.9,1.6-4.4c-1-0.6-2.8-1.4-3.9-1.7s-2.1-1.5-2.3-2.8
	c-0.2-1.4-0.9-2.1-2-2c-1.2,0.2-1.8-0.6-2-2.7c-0.2-1.7-1.2-3.7-2.3-4.5c-1.9-1.5-1.9-1.7-0.3-5.4c0.9-2.2,3.2-6.3,5-9.2
	c4-6.3,4.1-6.7,1.2-5.2c-1.9,1-2.5,0.8-5.1-2.1c-2.4-2.7-3.9-3.4-8.6-3.9l-5.6-0.6l0.3-7.6c0.3-7.4,0.2-7.7-2.5-9.6
	c-1.6-1.1-3.5-2.2-4.3-2.4c-1.9-0.6-4-10-3.3-15c0.4-3.3,1.1-4.1,4-5.3c3-1.3,3.8-1.3,6.3,0c1.6,0.8,3.8,1.5,4.9,1.5
	c1.8,0,2-0.6,2-4.8c0-2.6-0.5-5.3-1.1-5.9c-0.9-0.9-0.3-1.6,2.3-2.8c1.9-0.9,4.4-3.3,5.7-5.6l2.3-3.9l3.1,1.6
	c4.4,2.3,7.4,1.1,11.5-4.6l3.6-5l3.9,3.5c4.5,4,5.4,4.3,6.8,1.6c1-1.9-0.3-7-4.3-16.3c-0.9-2-1.6-6.1-1.6-8.9
	c0-5.6-2.9-11.3-6.3-12.4c-1-0.3-2.9-2.2-4.2-4.3c-2.1-3.2-2.3-4.2-1.5-7.2c0.5-1.9,1-3.6,1-3.7s-0.8-0.3-1.7-0.3s-2.9-1.2-4.5-2.7
	c-2.6-2.5-6.5-3.5-21.3-5.6c-1.8-0.2-2,0.3-2.1,6.5c-0.1,3.7-0.4,7.1-0.8,7.5c-1.6,1.6-10.1,4.2-11,3.3c-0.6-0.6-2-0.4-3.6,0.5
	c-1.5,0.8-3.6,1.1-4.8,0.8c-1.4-0.4-3.2,0.3-5.3,2l-3.2,2.5l-3.8-3c-3.5-2.8-4.2-3-7.8-2c-5.3,1.4-15.3-1.5-15.8-4.5
	c-0.2-1.3-1.3-2.2-3.2-2.6c-4.4-0.9-10-6.3-10-9.7c0-3.7-1.4-4.4-4.5-2.4c-3,2-3.2,3.1-0.5,3.9c3.2,1,2.3,3.1-1.9,4.3
	c-2.5,0.7-5.7,3.1-9,6.6c-5.3,5.6-6.2,7.6-3.6,7.6c1,0,1.5,1,1.5,2.9c0,2.3-0.5,3-2.2,3.2c-1.2,0.2-2.4,1.2-2.6,2.2
	c-0.2,1-1.7,3-3.3,4.3s-2.9,3-2.9,3.7s-0.7,1.6-1.5,1.9s-1.5,1.5-1.5,2.7c0,1.6-0.5,2-1.8,1.7c-1-0.3-2.4-0.7-3.2-0.9
	c-0.9-0.2-2.2,1-3.2,2.9l-1.7,3.3l4.7,6.2c2.6,3.4,6.9,9.4,9.7,13.3c2.7,3.9,7.1,8.7,9.7,10.7l4.7,3.7l6-3l6-3l2.1,2.9
	c1.2,1.6,3,4.9,4.1,7.4c1.8,4,5.9,8.5,10.3,11.1c1.5,0.9,1.2,1.6-2.3,5.9c-2.2,2.7-4.1,6.1-4.4,7.5c-0.3,1.4-0.8,3.4-1.2,4.3
	c-0.6,1.6,0.2,1.8,8.5,1.8c6.1,0,10.1-0.5,12-1.5c2.8-1.4,3-1.4,5.6,1.8c1.5,1.8,4.1,3.8,5.8,4.5s4.1,2.3,5.4,3.4l2.3,2.1l-3.6,3.7
	l-3.6,3.7l2,3.3c1.3,2.2,1.8,4.3,1.4,6.1c-0.5,2.6-0.3,2.8,2.5,2.8c2.6,0,3.4-0.6,5.2-4.2c3.5-7,3.6-7,8.3-3.8
	c5,3.4,6.5,7.5,5.8,14.9c-0.5,5.7,0.3,10.2,1.8,10.2c0.6,0,3,1.4,5.4,3c2.4,1.7,5.4,3.4,6.7,3.9
	C254.5,1027.1,260.2,1026.9,262.3,1025.3z"/>
<path id="divi-94" d="M961,1011.1c2.6-0.7,2.5-11.4-0.1-13.7c-1.1-1-2.2-3.8-2.6-6.8c-0.4-2.8-2.2-8.2-4.1-11.9
	c-1.9-3.8-3.4-7.4-3.4-8.2s-1.6-4.6-3.5-8.6c-2.7-5.7-3.5-8.6-3.5-13c0-5.2-0.3-6-3.6-9.2c-3.5-3.4-3.6-3.7-3.1-9.5l0.5-6l-9.9-11.2
	c-9.5-10.8-10.1-11.2-13.8-11.2c-3.6,0-3.9-0.3-3.9-2.5c0-1.4-0.6-4-1.4-5.9c-1.2-3-1.9-3.4-6.4-4c-2.8-0.4-6.9-0.4-9.1,0
	c-3.1,0.5-4.1,0.3-4-0.7c0.1-0.8,8.8-9.7,19.5-19.9c10.6-10.2,19.6-19.5,20-20.8c0.5-1.7,0-3-2-5.1c-3.6-3.7-7.1-11.6-8.6-18.8
	l-1.1-5.8l-5.2,0.4l-5.2,0.4l-3.9-11.1c-2.5-7.3-4.2-10.9-5-10.4c-0.6,0.4-3.7,2.6-6.9,4.9l-5.8,4.3l-4.6-2.9l-4.6-2.9l-3.1,1.9
	l-3.1,1.9l-2.8-2.6c-2.1-2.1-3-2.4-4-1.5c-0.7,0.7-2.9,1.2-5,1.2c-3.2,0-4.4,0.7-8,4.7c-6.8,7.4-12.1,10.3-18.7,10.3
	c-7.1,0-14.5,3.3-16,7.3l-1,2.8l-4-1.6c-3.7-1.5-4.2-1.5-7.8,0.4c-3.6,1.8-4,1.8-6.3,0.3c-1.3-0.9-4.5-2.2-7-2.8
	c-4-1-4.8-0.9-7.3,0.8c-2.9,2.1-3.3,2.1-15.5,0.2c-4.2-0.6-4.2-0.6-4.2,2.4c0,4.2-5.2,8.4-8.7,7.1c-1.3-0.5-4.1-0.9-6.3-0.9
	c-4.8,0-11,4.8-11,8.6c0,1.8-0.9,2.8-3.4,3.8c-1.9,0.8-3.7,1.9-4.1,2.6c-0.5,0.9-1.1,0.9-2.1,0c-1.9-1.5-6.2,0.7-4.6,2.3
	c1.6,1.6,1.4,4.5-0.3,5.4c-0.8,0.4-1.3,1.6-1.2,2.7c0.1,1.4-1.1,2.3-5.3,3.8c-7.3,2.5-9.8,5-8.2,8.1c1.5,2.9,3.2,10.9,2.6,12
	c-0.3,0.4-1.8,0.8-3.4,0.8c-1.7,0-3.8,0.9-5.2,2.4c-1.3,1.3-4,2.9-6,3.6c-2,0.7-3.6,1.7-3.5,2.2s-4.9,4.3-11.1,8.3
	c-6.2,4-11.9,7.8-12.5,8.6c-1,1.1-0.9,1.1,0.5,0.1s2.1-0.7,4.6,2.5c1.6,2.1,4.6,6.8,6.6,10.4c4,7.2,4.5,7.5,16.6,8.3
	c2.5,0.2,5.3,0.6,6.3,1.1c1,0.4,2.3,0.3,2.9-0.3c0.6-0.6,3-0.8,5.9-0.5c3.3,0.4,6.1,0,8.8-1l4-1.6l2.5,3.6c2.3,3.4,2.4,3.8,1,6.4
	c-0.8,1.5-2.8,3.6-4.5,4.6c-2.8,1.6-3,2.2-2.6,5.5c0.4,2.8,0,4.1-1.4,5.4c-2.9,2.6-2.3,5.5,2.2,10.2c2.8,3,4.9,4.2,6.8,4.2
	c1.5,0,5.6,1,9,2.1c5.1,1.7,6.7,1.9,8.8,1c1.4-0.6,4-0.9,5.7-0.5c2.3,0.4,3.6,0.1,4.5-1c1.6-2,6.3-2,12.6-0.1
	c3.8,1.1,14.8,1.6,49.9,2.1l45,0.7l-1.9-2.1c-1-1.2-3-2.1-4.2-2.1c-1.3,0-2.3-0.3-2.3-0.8c0-0.4,1.5-4,3.2-8.1l3.3-7.3l3.5,0.6
	c1.9,0.4,3.5,0.7,3.5,0.8c0.6,2.5,6.8,9.6,11.3,13c6.1,4.7,7.8,5,6,1.2c-0.8-1.9-0.5-3,1.8-6.3c2.5-3.5,3.6-4.2,8.6-5.3
	c5.1-1.1,6.4-2,12.2-8c5.2-5.4,7.5-7,11.2-7.9c2.6-0.6,4.7-1,4.8-0.9c0.1,0.2,1.3,1.9,2.7,3.8c2,2.7,2.8,5.5,3.7,12.8
	c1.1,9.3,1.1,9.3,5.7,13.5c3.5,3.2,5.7,6.6,9,14l4.4,9.8l-1.5,6.9c-1.3,6.3-1.3,7.2,0.2,10.4c1.6,3.5,1.8,3.5,6.2,2.9
	C957.2,1011.9,960.1,1011.4,961,1011.1z"/>
<path id="divi-41" d="M287.3,972.1c5.5-6.9,12.7-14.9,16-17.6c4.2-3.5,7.1-7.1,9.8-12.1c2.1-3.9,6.2-9.7,9-13
	s6.3-8.7,7.8-12c2.5-5.9,2.7-6.1,8.3-7.7c7.2-2.2,9.8-5,9.3-10.4c-0.3-3.6,0.1-4.5,4.5-9.2c3.5-3.8,4.8-6,4.8-8.1
	c0-2.4,1.4-4.3,7.2-9.7c4-3.7,9.2-9.1,11.6-11.9c3.9-4.6,4.3-5.5,3.9-9.4c-0.5-4.9,2-12.7,5.8-17.6c1.9-2.5,2.4-4.3,2.3-8.4
	c-0.1-2.8-0.3-5.2-0.6-5.2c-1.3,0-6.3,4.3-6.3,5.5c0,0.7-1.6,2.3-3.5,3.5c-2.7,1.7-3.5,2.8-3.5,5c0,1.6-0.5,3.2-1,3.5
	c-0.6,0.4-0.9,1.4-0.8,2.4c0.2,1-2.5,4.8-6.2,8.9l-6.4,7.2h-5.7c-4.8,0-6-0.4-7.3-2.2c-1.4-1.9-1.4-2.4-0.1-3.8c2-2.2,1.9-5-0.1-5
	c-0.9,0-2.8,0.8-4.2,1.8c-1.8,1.3-3.9,1.7-6.7,1.4c-2.2-0.2-6.8-0.6-10.3-0.7c-5.9-0.3-6.3-0.2-6.8,2c-0.3,1.3-2.1,3.5-3.9,4.9
	c-2.7,2.1-3.4,3.4-3.7,6.7l-0.3,4.2l-13.8,7.5c-10.7,5.8-13.6,7.9-13.1,9.1c0.4,0.9,1,4.7,1.4,8.6c0.4,3.8,2.1,10.6,3.8,15.1
	l3.1,8.1l-2,3.2c-1.1,1.8-2.2,3.2-2.5,3.2c-1.1,0-6.1-3-7.3-4.4c-1.9-2.3-2.5-2-5.3,2.2c-3.1,4.7-8.1,6.6-12,4.6
	c-2.4-1.3-2.7-1.2-4.7,2.1c-1.2,1.9-3,3.7-4,4c-1.7,0.5-1.9,1.5-1.7,7.2c0.2,6.5,0.2,6.6-2.6,7.4c-1.9,0.5-3.9,0.3-6.2-0.8
	c-4.8-2.3-8.4-0.6-8.4,4c0,8.2,1,10.6,5.6,13.3c4.7,2.8,4.5,2.1,4.8,14.5c0.1,3.4,0.2,3.5,4.8,3.8c3.8,0.2,5.2,0.9,7.2,3.2
	c2.1,2.5,2.8,2.8,5,2c1.8-0.7,2.8-0.6,3.7,0.5c0.8,0.9,3,1.4,6.3,1.4h5.1L287.3,972.1z"/>
<path id="divi-50" d="M438,977.4c4.2-1.5,7.7-2.2,10.4-1.9l4.1,0.4l0.7-27.3c0.4-15,1-27.6,1.4-28c1-1,14.2,1.1,17.5,2.8
	c2.8,1.5,3.1,1.4,8.1-1.9c4.4-3,5.8-3.4,9.7-3c6.6,0.6,12.6-2.5,13.1-6.8c0.3-2.9,0.9-3.3,6.8-5.5c3.6-1.3,7.1-2.2,7.8-1.9
	s2.6-0.2,4.2-1s5.2-1.5,8-1.5c4.3,0,5.5-0.4,7.1-2.5c1.1-1.4,5.6-4.3,10-6.5c7.8-3.9,8.8-4.1,13.6-2.3c0.8,0.3,1.2-0.4,1.2-1.6
	c0-1.1,1.1-2.8,2.4-3.7c2.3-1.5,2.7-1.4,7.7,1.1s5.6,2.6,10.8,1.4c3-0.7,6.6-1.9,7.9-2.8c1.8-1.2,5-1.5,13.2-1.5
	c9.4,0.1,11.2,0.3,13.8,2.2l3,2.1l3.8-2.2c3-1.8,5-2.2,10.1-1.9c11.6,0.5,10.3,9.8,10.3-75v-74l-2.8,1.9
	c-4.7,3.4-27.1,14.2-29.3,14.2c-3.8,0-12.4,4.3-18,9c-15.3,13-19.8,15-23.5,11c-1.4-1.5-3.1-2-7.3-2c-4.8,0-6.1,0.5-10.6,3.9
	c-5.1,3.9-11.9,5.8-14.6,4.1c-0.8-0.5-2.5,0.1-4.5,1.7c-2.8,2.1-4.1,2.4-9.5,2.2l-6.3-0.3l-0.9-3.8c-0.7-2.9-2-4.6-5.7-7.3
	c-3-2.2-5-4.5-5.4-6.2c-0.6-2.9-6.4-12.7-7.1-12c-0.2,0.2-1.6,8-3,17.4s-2.9,17.3-3.3,17.7s-3.7-1.3-7.5-3.7
	c-9.1-5.8-11.7-6.4-16-3.1l-3.3,2.5l-3.6-3c-2.6-2.2-3.8-4.1-4.3-7c-0.7-4-5.1-9-8-9c-0.8,0-3,1.4-5,3.1c-3.9,3.4-3.9,3.3,0,13.1
	l2.3,5.8l-6.1,3.4c-3.4,1.9-7.9,3.7-10,4.1s-5.3,2-7.1,3.6c-2.2,1.9-4.4,2.9-6.6,2.9c-1.9,0-3.8,0.3-4.4,0.8
	c-2.2,1.6-7.3,9-9.3,13.5c-3.3,7.6-7,11.8-10.3,11.8c-2.4,0-2.9,0.4-2.9,2.6c0,1.4-1.5,4.7-3.4,7.2c-4.3,5.9-6,11.2-5.4,16.7
	c0.5,4.1,0.1,4.8-4.7,10.6c-2.9,3.5-7.3,8-9.9,10.1c-3.8,3.1-4.5,4.1-3.6,5.2c0.6,0.8,2.2,1.4,3.5,1.4c1.4,0,3.4,1.3,5.1,3.4
	c1.6,1.9,4.7,4.3,7,5.5c3.7,1.8,4.2,2.6,5.1,6.9c0.9,4.6,0.8,4.9-2.6,8.5c-3.1,3.3-3.6,4.5-3.9,10.2c-0.3,5,0.2,8.2,2.2,14.3
	c2.3,7.1,3.7,13.3,5.2,23.5c0.3,2,1.5,5.1,2.8,6.9c2,3,3,3.5,12.2,5.4c9.5,2,15.7,4.7,18.5,8.1c0.7,0.8,3.1,2.3,5.4,3.3
	s4.7,2.6,5.5,3.5C431.3,980.2,430.5,980.2,438,977.4z"/>
<path id="divi-99" d="M677.2,890.2c0.9-0.3,1.6-1.2,1.6-2s1.2-2,2.7-2.8c2.5-1.3,3-1.2,5.3,0.4c2.3,1.6,3.1,1.7,6.5,0.7
	c2.1-0.6,4.7-2.2,5.7-3.5c1.2-1.4,2.9-2.3,4.8-2.3c2.9,0,3-0.1,2.3-3.8c-0.4-2.1-1.5-4.7-2.5-5.8c-1.8-2-1.8-2.1,0.3-5.4
	c2-3.1,8.9-7.1,12.3-7.1c1.1,0,1.2-0.6,0.4-2.6c-0.8-2.2-0.7-2.7,1-3.1c2.6-0.7,2.5-1.1-0.5-3.5c-3.1-2.4-2.4-3.8,1.8-3.8
	c1.8,0,3.9-0.4,4.7-0.9c0.9-0.6,1.9-0.6,2.6,0c0.8,0.6,1.6,0.4,2.4-0.6c0.7-0.8,1.9-1.5,2.6-1.5c0.8,0,1.4-0.8,1.4-1.8
	s1.9-3.6,4.2-5.9c3.3-3.2,5.3-4.2,9-4.8c2.8-0.4,5.5-0.2,6.7,0.4c3.1,1.6,5.9-0.6,6.3-4.9c0.3-3.4,0.5-3.6,4.8-4.2
	c2.5-0.3,5.3-0.2,6.2,0.2c3,1.5,8.9,1,11.9-1.2c2.2-1.6,3.3-1.8,4.8-1c1.1,0.6,2.9,1,4.1,1c1.2,0,3.5,0.9,5,2c2.9,2,2.9,2,6.7,0.1
	c3.4-1.7,4.2-1.8,7-0.6c3.1,1.3,3.2,1.2,4.2-1.6c0.6-1.8,1.7-2.9,2.8-2.9c1,0,2.9-0.7,4.2-1.6c1.4-1,5.2-1.8,9.5-2.1
	c8.5-0.6,12.3-2.7,18.5-10.1c3.9-4.6,4.7-5.1,8.3-5.1c2.3,0,4.8-0.7,5.8-1.5c1.6-1.4,1.9-1.3,4.2,1.4l2.5,2.9l2.9-1.8
	c2.9-1.8,2.9-1.8,7.6,1.1l4.7,2.9l6.6-4.7c3.6-2.6,6.6-5,6.6-5.3s-1.2-2.4-2.6-4.5c-2.4-3.5-2.6-4.5-2-10.8l0.6-6.9l-4.5-6.4
	l-4.5-6.4l1.5-8.7c0.8-4.8,1.5-11.4,1.6-14.7s0.2-11.2,0.3-17.5s-0.1-13.1-0.5-15l-0.7-3.5l9-5.4c8.7-5.2,9-5.5,8.9-9
	c0-2-0.5-5.6-1-7.9c-0.8-3.3-0.6-5.8,0.7-10.9c1.5-5.9,2.4-7.5,7.9-13.2l6.3-6.5l-1.9-3.8c-1.1-2.1-1.9-4.7-1.9-5.8
	s-1.5-3.6-3.2-5.6c-3.1-3.4-3.6-3.5-12.4-4.1l-9.2-0.6L885,630l-5.1,3.7l-6.3-1.1c-5.4-0.9-6.9-0.8-10.2,0.6
	c-2.4,1.1-7.3,1.8-12.9,2c-5,0.2-12.5,1.2-16.7,2.3l-7.7,2l-8.6-2.4c-4.7-1.3-12.3-2.7-16.8-3l-8.2-0.7l-5.3,5.6
	c-2.9,3.1-5.6,5.6-5.9,5.6c-0.3,0-1.6-0.9-2.7-1.9c-2-1.9-2.2-1.8-10.6,2.1l-8.5,4l-10.2-0.7l-10.2-0.7l-1.9,3.8
	c-1.1,2.1-3.3,5-4.9,6.5c-2.1,1.9-3.2,3.9-3.7,7.2c-1,6.6-8.6,13.1-19.7,16.8c-11.4,3.8-23.7,10.1-27.6,14c-1.8,1.8-5.4,6.2-8,9.8
	c-3.5,4.9-6,7.1-9.7,8.9c-4.2,2-5.9,3.7-10.2,10.4l-5.2,8V808c0,73.5,0,74.8,2,76.8c2.3,2.3,2.9,2.4,6.3,1.1c2-0.7,2.8-0.5,4.2,1
	c1,1.1,2.9,1.9,4.3,2s3.3,0.5,4.1,1C670.5,890.9,674.8,891.1,677.2,890.2z"/>
<path id="divi-73" d="M307.8,859.7c0-3.4,0.5-4.2,3.5-6.2c1.9-1.2,4.1-3.8,4.9-5.8l1.4-3.5l6.4,0.3
	c3.5,0.2,8.4,0.4,10.9,0.6c2.9,0.2,5.5-0.3,7.3-1.5c5.6-3.4,11.4,1.4,7.2,6c-2.2,2.4-1.1,3.1,4.8,3c4.9-0.1,5.3-0.4,10.4-5.9
	c4.8-5.3,5.2-6,4.1-8.1c-1-1.9-0.9-2.5,0.4-3.4c0.9-0.7,1.6-2.1,1.6-3.3c0-1.4,1.3-2.9,4-4.4c2.2-1.3,4-3,4-3.9s1.5-2.6,3.4-3.8
	c3.6-2.2,4.9-4.8,3.5-7.2c-0.4-0.8-0.4-3.2,0-5.4c0.5-2.2,1.1-8.3,1.5-13.5c0.6-8.2,0.4-9.8-1-11.3c-1.6-1.6-1.9-1.5-5.1,1.3
	c-4.2,3.7-5.7,3.8-9.9,0.6c-2-1.5-4.9-2.6-7.6-2.8c-5.8-0.4-6.1-2.3-1.4-10.1c3.4-5.7,3.6-6.4,2.3-8.7c-0.9-1.7-1.3-4.8-1-9.3
	c0.4-6.4,0.6-6.9,3.6-8.9l3.3-2.1l1.3-15.2c1.1-13.4,1.1-15.5-0.3-18.2c-1.5-2.8-2-3.1-9.1-3.7l-7.6-0.7l-6.2,5.1
	c-5.7,4.7-6.6,5.1-11.5,5.1c-5,0-5.4,0.2-6.7,3.3c-0.8,1.9-1.3,6.1-1.2,10.2c0.2,5.9-0.2,7.8-2.6,12.3c-1.8,3.4-2.8,6.9-2.8,9.7
	c0,4-0.4,4.7-7,10.8c-6.4,5.9-7,6.8-7,10.5c0,5.3-2.3,11.6-6,16.2c-1.7,2.1-3,4.4-3,5c0,0.7-3,5.3-6.7,10.3
	c-8.2,11.1-14.3,24.1-14.3,30.9c0,2.6-1.1,8.3-2.5,12.5c-2.6,8.3-5.5,19.9-5.5,22.2c0,0.8,2.1,3.3,4.6,5.6l4.6,4.2l13.4-7.5
	l13.4-7.5v-3.8L307.8,859.7L307.8,859.7z"/>
<path id="divi-76" d="M220.7,869.5c1.4,0.4,3.7-0.2,6.1-1.6c3.3-1.8,4-1.9,4.7-0.7s1.3,1.3,4.1,0l3.3-1.4l-0.3-6.5
	c-0.4-8.6,0.8-10,7.2-8.1c2.5,0.7,7.3,1.7,10.6,2.1c4.6,0.5,6.7,1.3,8.4,3.1c2.7,2.9,6.9,3.3,6.9,0.6c0-1,1.1-5.1,2.5-9.2
	c1.6-4.7,2.5-9.6,2.5-13.5c0-3.6,0.6-6.9,1.4-8.1c0.8-1.1,2.6-4.9,4.1-8.5s5.6-10.4,9.1-15.1l6.4-8.6l-4-9.4
	c-2.2-5.2-5.2-11.7-6.6-14.5c-2.2-4.4-2.5-5.9-2-10.5c0.8-6.7,3.8-10,6.7-7.3c1.5,1.3,2.1,1.4,3.8,0.3c3.8-2.4,3.2-3.6-2.7-4.7
	c-3.1-0.6-7.2-1.2-9.2-1.4l-3.5-0.3l0.3-4.8c0.3-3.8,0-4.8-1.2-4.8c-0.9,0-2.7-1.8-4.1-4c-3.6-5.7-6.9-5.6-9.4,0.2
	c-1.2,2.7-3.8,5.9-7.2,8.6c-6.8,5.5-14.5,15.2-16,20.4c-0.7,2.2-2.2,4.8-3.5,5.8c-2.6,2.1-3.1,6.2-0.8,8c0.8,0.7,1.5,2.4,1.5,3.7
	c0,1.5,1,3.3,2.5,4.5c4.2,3.3,3.2,5.3-4.6,9.9c-9,5.3-17.8,9.2-19,8.4c-0.5-0.3-0.7-1.7-0.3-3c0.6-2.3,0.4-2.4-3.9-2.4
	c-3.6,0-4.9-0.5-6.4-2.4c-1.9-2.4-1.9-2.4-4.9-0.5l-3,1.9l-4.9-4c-2.9-2.4-5.5-3.8-6.4-3.4c-0.9,0.4-2.4-0.5-3.7-2.2l-2.2-2.7
	l-1.7,3.2c-1.5,2.9-1.9,3.1-3.8,2.1c-1.9-1-2.5-0.7-5,2c-2.7,3-3.9,8.1-1.9,8.1c0.5,0,1.6,0.6,2.4,1.4c1.3,1.3,1.8,0.8,4.2-3.8
	c1.5-2.9,2.9-5.4,3.1-5.6c0.3-0.3,7.9,2.6,9.2,3.6c0.2,0.1-0.2,1.7-0.9,3.6c-1.3,3.3-4.5,6.8-6.1,6.8c-0.5,0-0.8,0.9-0.8,2
	c0,1.6,0.7,2,3.8,2s4.5-0.7,7.6-4c4.7-4.8,6.6-5.1,6.6-1c0,1.7,0.4,3,1,3c1.5,0,1.2,1.9-0.6,3.7c-1.2,1.2-1.4,2.7-1,5.7
	c0.6,3.7,0.4,4.3-1.9,5.5c-2,1-2.8,1.1-3.7,0.2c-1.9-1.9-2.8-1.3-1.7,1.2c0.9,2,0.7,2.7-1.4,4.8c-1.4,1.3-4.2,3.3-6.3,4.4
	c-4.2,2.2-7.8,7.4-5.7,8.2c0.7,0.2,1.2,1,1.2,1.6c0,1.4-4.3,6.3-6.2,6.9c-1,0.4-1.1,0.7-0.1,1.8c0.7,0.7,1.2,2.5,1.2,4
	c0,3.6,3.2,6.2,8.3,6.9c3.7,0.5,4.3,0.9,4.5,3.3c0.2,1.9,0.9,2.8,2.2,2.8c1,0,3,0.5,4.4,1.1c1.8,0.8,3.6,0.8,6.8,0
	c4-1,4.5-0.9,7.8,1.7l3.5,2.8l3-2.3C217.4,869.6,219.1,869.1,220.7,869.5z"/>
<path id="divi-11" d="M396.7,820.6c1.1-1.2,3.6-5.4,5.5-9.3c2-4,5.2-9,7.3-11.3c6.2-6.8,8.2-9.9,7.1-11
	c-1-1-0.8-5.2,0.9-16.2c0.5-3,2.1-7.4,3.6-9.8c3.7-5.8,5.3-14,3.8-19.2c-0.7-2.2-1.6-4-2.1-4s-2.3,2.4-3.9,5.3
	c-1.7,3-4.2,5.9-5.7,6.5l-2.7,1.2l2,2.2c2.9,3.2,3.5,9.7,1.2,12.8c-1.4,1.8-1.9,4.2-1.9,9.4c0,4.4-0.7,8.9-1.9,12
	c-1.7,4.4-2.3,5.1-5.3,5.6c-5.5,0.9-5.8,1.5-5.8,9.3c0,6.9-0.2,7.5-4,12.6c-2.2,2.9-4,5.5-4,5.7
	C390.8,823.7,395.1,822.4,396.7,820.6z"/>
<path id="divi-25" d="M395.8,804.4c0-8.1,2.2-11.6,7.2-11.6c4,0,5.8-4.6,5.8-14.7c0-6.2,0.4-8.3,2-10.3
	c3-3.8,2.6-8.3-1.1-12.5l-3.1-3.6l3.9-1.7c3-1.3,4.6-3,7-7.2c4-7.4,6.8-7.6,9.4-0.7c1.7,4.4,1.7,5.5,0.5,11.3
	c-0.7,3.5-2.5,8.1-3.8,10.2s-2.8,6-3.2,8.7c-1.6,12.1-1.7,15.7-0.7,16.7c0.8,0.8,0.4,2-1.5,4.4c-2.4,3.2-2.4,3.3-0.5,3.3
	c1.1,0,3.5-1.3,5.3-2.8s5.3-3.3,7.9-4c2.5-0.6,6.7-2.3,9.2-3.7c4.1-2.3,4.6-2.8,3.6-4.6c-0.6-1.1-1.9-4.4-2.9-7.3L439,769l4.2-4
	c2.3-2.2,5.1-4.2,6.2-4.4s3.9,0.9,6.2,2.4c3.4,2.3,4.3,3.6,4.8,6.9c0.4,2.4,1.7,5,3.3,6.4l2.6,2.4l3.1-2.4c3-2.3,3.3-2.3,7.8-1
	c2.6,0.8,6.8,2.8,9.3,4.6c2.5,1.7,4.7,3,4.9,2.8c0.2-0.2,1.3-6.6,2.5-14.3s2.4-15.1,2.7-16.5c0.5-2.4,0.5-2.4-1.4-0.8
	c-2.9,2.6-7.7,2.2-9.7-0.8c-1-1.5-2.6-2.5-4-2.5c-2.5,0-7.8-5.2-9.8-9.6c-0.7-1.6-2.2-2.5-4.9-3c-2.2-0.4-4.5-1.5-5.3-2.7
	c-1.3-1.8-1.2-2.6,1.1-7.1l2.5-5l-1.8-6c-1.2-4-2.9-7-5.1-9c-2.5-2.3-3.3-3.8-3.3-6.6c0-4.3-3.4-7.3-7.6-6.9c-2.3,0.2-2.8-0.2-3.7-3
	c-0.6-2.1-1.6-3.2-2.7-3.2c-1.7,0-8,6.2-8,7.9c0,0.5-1.4,1.8-3.2,2.9c-3.5,2.2-4.9,1.9-10-2.4c-1.5-1.2-4.5-2.6-6.8-2.9
	c-3.4-0.6-4.4-1.3-6-4.6c-1.1-2.3-2.2-7-2.6-11.3c-0.8-10-1.3-10.6-6-7.5c-3.2,2.1-4.4,2.3-7.3,1.6c-2.2-0.6-4.5-0.5-6.2,0.2
	c-2.3,0.9-2.8,1.7-2.8,4.8c0,2.1-0.9,5.2-2,7c-1.2,2-2,5-2,7.7c0,2.5-1.2,7.3-2.6,10.9c-2.4,5.9-2.5,6.7-1.1,9.3
	c1.2,2.2,1.3,4.5,0.6,10.8c-0.5,4.4-0.9,11.2-0.9,15.1c-0.1,6.9-0.2,7.2-3.5,9.7c-3,2.3-3.5,3.3-4.1,8.5c-0.5,4.4-0.3,6.7,0.8,8.9
	c1.5,2.8,1.4,3.2-1.9,8.7c-1.9,3.1-3.4,6.1-3.4,6.7c0,0.5,1.4,0.9,3.2,0.9c1.8,0,4.5,1.1,6.4,2.5c4.2,3.2,5.6,3.1,9.8-0.5l3.4-3
	l2.7,2.4c2.6,2.2,2.7,2.8,2.6,10.6c-0.1,4.5-0.6,10.7-1.3,13.8c-1,4.8-0.9,6.1,0.6,9.4l1.7,3.9l2.4-3.2
	C395.4,811.9,395.8,810.2,395.8,804.4z"/>
<path id="divi-27" d="M233.5,793.5c4.2-2.3,7.8-4.8,8.1-5.5s-0.7-2.2-2.1-3.3c-1.7-1.3-2.6-3-2.6-4.9
	c0-1.5-0.7-3.4-1.5-4c-2.5-2.1-1.8-6.4,1.4-9.3c1.6-1.4,3.5-4.4,4.2-6.7c1.4-4.7,10.8-16.2,16.7-20.5c2.4-1.7,4.8-4.6,5.7-6.8
	c1.5-3.7,1.5-3.9-0.8-5.7c-1.3-1-2.9-3.6-3.5-5.8s-1.8-4.5-2.6-5.1c-1.9-1.6-1-6.8,2.6-14.2c2.3-4.7,3.3-5.9,5.2-5.9
	c3.2,0,9.7-6.2,9.6-9.2c0-1.3-0.9-3.4-2-4.8c-1.1-1.4-2-4.1-2-6c0-2-0.5-4-1.1-4.6c-1.3-1.3-1.5-6.4-0.5-13.1
	c0.8-5.1,0.7-5.2-1.5-5.2c-1.3,0-3.6-1.2-5.1-2.7c-2.4-2.3-2.8-3.5-2.8-8.1v-5.4L251,637c-4.3,0.2-8.9,1-10.2,1.8
	c-1.4,0.7-5.6,1.4-9.5,1.4l-7,0.1l-3.9-6.9c-3.5-6.3-3.8-7.2-2.8-10c2.3-6.4,1.6-8.7-4.9-15.4c-3.3-3.4-6.3-7.4-6.6-8.9
	s-0.8-3.7-1-4.9c-0.3-1.2,0.2-3.6,1.1-5.2c1.3-2.5,2.1-3,5.3-3c2.1,0,4.6-0.6,5.7-1.4c1.8-1.3,1.8-1.5-0.2-6.5
	c-2.3-5.6-1.8-6.7,2.2-5.2c1.5,0.6,5,1,7.9,1c3.1,0,6.1,0.6,7.2,1.5c2.8,2.1,3.2,1.9,3.8-2.5c0.3-2.2,0.9-5.7,1.2-7.8
	c0.5-3.2,0.1-4.4-2.7-8c-2.4-3.1-4-4.2-5.9-4.2c-2.8,0-7.3-4.2-12.7-11.8c-1.7-2.4-7.1-7.2-12.1-10.8s-10-8-11.1-9.7l-2.1-3.2l2.4-2
	c4.3-3.5,6.9-11.9,7-21.7c0-7-0.3-9.1-1.8-10.5c-1-1-3.2-4.3-5-7.3c-2.4-4.1-4.4-6.2-7.9-8c-2.6-1.4-4.7-3-4.7-3.6s-1.2-2.4-2.6-3.9
	c-2.5-2.6-2.8-2.7-5.2-1.4c-4.6,2.6-4.9,4.2-1.4,9.8c1.7,2.8,3.2,6.4,3.2,7.9c0,1.8,1.1,3.8,3.1,5.7c6.2,5.9,9.5,15.8,8.3,24.8
	c-0.5,4-1,4.6-2.9,4.6c-4.9,0-7.1,2-14.9,13.9c-7.7,11.7-8.1,12.1-11.6,12.1s-3.6-0.1-4.9-5.5c-1.1-4.7-1.6-5.5-3.4-5.2
	c-2.3,0.3-2.6,2.9-1.2,10.4l0.8,4.1l-3.8,0.9c-3.7,0.9-3.8,1-6.5,9.7L137,561l4.2,3c2.3,1.7,5.3,3.7,6.7,4.5c2.5,1.5,7,7.4,7,9.3
	c0,0.5-0.8,1.8-1.9,2.8c-2.3,2.2-3.7,6.3-2.2,6.3c0.6,0,1.1-0.5,1.1-1c0-1.8,2.5-1,5.6,1.9c2.1,1.9,3.6,4.6,4.5,8
	c1.2,4.5,1.5,5,2.6,3.5c0.7-0.9,1.4-2.2,1.6-2.8c0.2-0.7,1.6-0.4,4,0.8c2.7,1.4,3.8,2.8,4.2,5.2c0.3,1.8,1.3,3.7,2.1,4.1
	c1.3,0.7,1.2,2.6-0.8,14.5c-2.2,13.5-3.4,16-5.5,11.5c-0.9-2.1-1.1-1.9-1.7,1.7c-0.7,3.7-0.5,4.2,2.6,6.7c1.8,1.5,3.8,2.8,4.5,2.8
	s1.5,1.9,1.9,4.2c1.2,7.6,2.8,11.8,5.2,13.7c3.5,2.8,2.3,8.3-3.1,14c-3.8,4-4.7,4.5-9,4.6c-5.4,0.1-6.2,0.7-7.1,5.2
	c-0.6,3.1-0.5,3.3,1.6,2.8c1.5-0.3,3.2,0.2,4.8,1.5c2.1,1.7,2.3,2.4,1.2,4c-1.7,2.7-1.5,3.6,1,6.1c1.8,1.8,1.9,2.5,1,4
	c-1.9,3.1-1.4,5.8,1.4,6.5c3,0.8,3.2,2,0.4,4.3c-1.9,1.6-2,2.1-1,7.6c0.6,3.2,1.1,7.7,1.1,9.8c0,3.3,0.7,4.6,4,7.9
	c2.4,2.4,4,4.9,4,6.4c0,2.6-2.4,3.3-3.4,0.9c-0.3-0.8-1-1.5-1.6-1.5s-1,4-1,10.5c0,6.3,0.4,10.5,1,10.5c2,0,0.9,2.9-1.2,3.2
	c-1.4,0.2-3.6,2.3-5.8,5.5c-3.5,5.2-5.5,6.4-6.3,4c-0.3-0.8-0.9-0.4-1.6,1.1c-1,1.9-0.9,3.2,0.4,7.2c0.9,2.7,2,5.2,2.5,5.5
	s2.7-1.5,5-4c3.4-3.7,4.5-4.3,6-3.5s2.1,0.5,3.4-2c1.9-3.7,3.9-3.8,6.1-0.5c0.9,1.4,2.3,2.3,3,2.1c0.7-0.3,3.5,1.2,6.2,3.4l4.9,3.9
	l3.1-2l3.1-2l1.9,2.5c1.6,2,3,2.5,7.4,2.8c5,0.3,5.4,0.5,5.1,2.7c-0.2,2.1,0.1,2.3,2.3,1.7C224.7,798,229.3,795.8,233.5,793.5z"/>
<path id="divi-63" d="M300.9,787.5c3.7-4.2,5.8-10,5.8-15.9c0-5.3,0.3-5.8,3.3-7.9c6-4.1,10.8-9.2,10.8-11.6
	c0-2.2-0.3-2.3-9.3-2.3h-9.3l-4.3,4.1c-4,3.8-4.4,4-6.1,2.4c-1-0.9-2.3-1.4-2.9-1c-1.5,0.9-1.3,10.7,0.2,13.1
	c0.7,1.1,3,6.4,5.2,11.7s4.1,9.8,4.3,9.8C298.8,789.8,299.8,788.8,300.9,787.5z"/>
<path id="divi-85" d="M534.1,775.3c2.3-1.7,3.6-2.2,4.7-1.5c3.4,2.1,7.7,1,13.8-3.5c5.6-4.2,6.4-4.5,12.1-4.5
	c5,0,6.3,0.4,7.4,2c2.6,4.2,7.2,2,22.9-11.1c4.5-3.8,15.3-8.9,18.9-8.9c3.1,0,23.8-10.7,29.5-15.2c2.8-2.2,6.9-7,9.3-10.8
	c3.5-5.6,5-7.1,8.6-8.5c4.3-1.7,9-6.4,13.4-13.6c4.5-7.4,14.7-13.5,32-19.3c5.7-1.9,9.8-4,13-6.8c5.6-4.8,5.8-5.1,6.7-10.5
	c0.5-3,1.6-5,3.9-6.9c3.5-2.9,5.6-6,5.6-8.4c0.1-2.6-4.8-7-7.7-7c-1.6,0-4.4-1.5-7.2-3.8c-6.7-5.7-8.1-6.2-17.4-6.2
	c-7.9,0-8.9,0.2-14.3,3.4l-5.8,3.4l-6.5-1.5c-3.6-0.8-8.1-2.2-10.1-3c-5.2-2.3-34.8-1.4-48.4,1.3c-8.9,1.8-10.2,1.9-12.2,0.6
	c-2.1-1.4-2.9-1.2-10.5,2.1s-8.4,3.4-11,2.1c-2.6-1.4-3.4-1.2-11.6,2.4c-8.2,3.6-9,3.8-11.6,2.5c-1.5-0.8-3.9-3.2-5.3-5.3
	c-2.8-4.2-4.5-5.3-6.9-4.4c-1.9,0.7-1.9,4.1,0,7.4c0.8,1.4,1.4,5.2,1.5,8.8c0,6.2,0,6.3-3.6,8.4l-3.6,2.1l5.6,2.8
	c3.1,1.6,5.6,3.2,5.6,3.7s1.3,2.1,2.9,3.6c2.8,2.6,2.8,2.9,1.4,5.1c-0.9,1.3-2.1,5-2.7,8.1c-1,5-1.4,5.7-3.7,6c-2,0.2-3-0.4-4.6-2.9
	l-2-3.2l-3.4,4.2c-1.9,2.3-6.1,6.5-9.4,9.2s-6.6,6.1-7.3,7.5l-1.3,2.5l-4.2-4.1l-4.2-4.1l-3.3,3.4c-3.4,3.5-5.8,11.2-4.1,13
	c1.2,1.3-2.3,7.9-5.9,10.8c-2.6,2.2-3,3.3-3.6,10.5c-0.7,7.9-0.7,8.1,2.6,12.9c1.8,2.7,3.6,5.1,4,5.4c0.4,0.3,1.2,2.3,1.8,4.5
	c0.9,3.1,2.3,4.8,6,7.2c3.8,2.5,4.9,3.9,5.5,6.7l0.7,3.6h5.5C529.7,777.8,531.6,777.2,534.1,775.3z"/>
<path id="divi-15" d="M494.5,747.8c0.7-1.1,1.5-5.7,1.8-10.2c0.6-8.2,0.7-8.4,5-12.5c4.4-4.2,5.2-5.7,3.5-6.8
	c-0.6-0.3-0.4-2,0.5-4c0.8-1.9,1.4-4.5,1.4-5.7c0-1.3,1.9-4.2,4.7-7l4.7-4.8l3.6,3.6l3.6,3.6l3.4-3.3c1.9-1.8,5.2-4.9,7.4-6.8
	c2.2-1.9,5.8-5.7,8-8.4l4.1-4.9l2.3,3.7c3.1,5,4.7,4.7,5.6-1.1c0.4-2.6,1.1-5.5,1.7-6.5c1.5-2.7-3.5-8.4-10.3-11.8
	c-3.2-1.6-5.8-3.2-5.8-3.4c0-0.3,1.8-1.6,4.1-3.1l4.1-2.6l-0.5-6.2c-0.3-3.4-0.9-8.2-1.5-10.7c-1.4-6.1,0.2-12.6,3.9-16.3
	c1.6-1.5,2.9-3.9,2.9-5.2c0-3.1,1.4-3.9,4.1-2.5c1.6,0.8,2.8,0.8,5-0.1c2.5-1,2.9-1.7,2.9-5.1c0-3.9,2.7-10.2,8.9-20.8
	c2.2-3.7,3.1-6.5,3.1-9.6c0-4.2-0.1-4.5-2.9-4.5c-1.8,0-3.1-0.6-3.5-1.7c-0.6-1.5-0.8-1.5-2.3-0.1c-1.5,1.5-1.8,1.5-4.1-0.1
	c-2.1-1.4-2.6-1.4-3-0.2c-0.3,0.8-1.5,2.3-2.7,3.5c-1.2,1.1-3.4,3.9-4.9,6.2l-2.7,4.2l-4-1.4c-2.2-0.8-4.2-1.4-4.4-1.4
	s-0.4,4.2-0.4,9.2c0,7.6-0.4,9.7-2,11.8c-1.1,1.4-2,3.3-2,4.2c0,1-2.1,3.1-4.8,4.7l-4.8,3l-3.3-3.5c-1.8-1.9-3.9-3.5-4.8-3.5
	c-2.3,0-1.8,3.9,1,7.1c2,2.4,2.3,3.4,1.5,5.5c-0.5,1.4-1,3.7-1,5.2c0,1.8-1.8,4.8-5.6,9.2c-3.1,3.6-7.4,9.1-9.6,12.3l-4,5.8
	l-7.8-0.7l-7.8-0.7l-2.6,4.1c-1.4,2.3-3.1,4.1-3.6,4.1s-2.7,1.8-4.6,4l-3.6,4l-2.9-2c-3.6-2.5-3.7-5.4-0.4-9.9c3.6-4.9,3.3-8-1.2-11
	c-3-2-3.8-2.2-4.2-1c-0.3,0.8-1.8,2.8-3.4,4.4c-2.8,2.8-2.9,3.3-2.5,9.5c0.3,4.4,0,7.5-0.9,9.3l-1.4,2.7l-4-1.6
	c-3.6-1.4-4.4-1.4-8.7,0c-2.6,0.9-6.6,1.6-9,1.6c-3.6,0-4.6-0.5-6.4-3c-1.2-1.7-2.6-3-3.2-3s-2.6-1.2-4.6-2.6
	c-3.3-2.6-3.6-2.6-6.3-1c-2.7,1.6-2.9,1.6-4.4-0.6c-0.9-1.3-1.6-4.3-1.6-7.5v-5.3h-5.5c-4.7,0-5.6-0.3-6.6-2.2
	c-0.6-1.2-2.4-3.6-3.9-5.2s-3-4.3-3.4-5.8l-0.7-2.8l-2.5,2.9c-3,3.5-3,4.5-0.6,8.5c1.8,2.9,1.8,3.5,0.4,9.1c-0.8,3.3-2.4,7-3.5,8.2
	c-1.4,1.5-1.8,2.9-1.4,4.7c0.6,2.5,0.7,2.5,4.7,1.1c3.1-1.1,4.6-1.2,6.5-0.3c2.1,0.9,3,0.7,6.3-1.5c2.1-1.5,4.4-2.7,5.1-2.7
	c2,0,4.1,6.5,4.1,12.7c0,8.3,2.3,12.4,7.7,13.8c2.3,0.6,5.2,2,6.5,3.1c1.3,1.2,2.8,2.4,3.5,2.8c1.3,0.8,6.3-1.2,6.3-2.5
	c0-0.5,1.9-2.9,4.2-5.4c5.2-5.6,8.7-5.8,10.2-0.6c0.8,2.7,1.3,3.2,3.1,2.8c1.5-0.4,3.3,0.4,5.8,2.5c3,2.4,3.7,3.7,3.7,6.5
	c0,2.5,0.8,4.2,2.9,6.2c1.7,1.6,3.7,5.3,5,9.1l2.1,6.3l-2.6,5c-2.9,5.7-2.4,7,3.4,8.4c2.4,0.6,4.1,2.2,6.5,5.8
	c2.7,4.1,3.9,5.1,6.5,5.3c2.1,0.2,3.8,1.2,4.9,2.8C488.4,750.3,492.8,750.6,494.5,747.8z"/>
<path id="divi-66" d="M322.2,744.2c0.5-2-0.2-3.5-3.1-7l-3.7-4.5h-8.3h-8.3l-2-4c-1.1-2.2-2.2-4-2.5-4s-1.4,1.8-2.5,4.1
	l-2.1,4.1l-3.2-2.5c-4.4-3.4-4.9-9.4-1.2-16.2c1.4-2.6,2.5-5.6,2.5-6.7c0-2.4,3.9-3.9,8.5-3.1c3.6,0.6,3.6,0.6,3.3-2.8l-0.3-3.4
	h-6.5h-6.5L286,695c-0.2-2.5-0.9-3.4-2.8-3.9c-3.7-0.9-10.1,1.3-13,4.7c-1.5,1.6-3.6,2.9-4.9,2.9c-1.8,0-2.8,1.1-4.4,4.8
	c-3,6.9-3.5,10-1.7,12c0.8,0.9,2,3.3,2.6,5.2c1.4,4.5,4.2,6.3,8.6,5.4c3.2-0.6,3.6-0.4,5.6,3c1.2,2,3.2,4.1,4.4,4.5
	c2.2,0.8,3.9,5.7,2.9,8.3c-0.8,2.1,12.5,4.4,26.2,4.6l12.1,0.1L322.2,744.2z"/>
<path id="divi-17" d="M325.6,737c0.5-1,0.8-4.9,0.7-8.8c-0.1-4.7,0.4-8.4,1.5-11.1c1.5-3.6,2.2-4.2,5.5-4.7
	c2.1-0.3,4.9-0.6,6.2-0.6c1.3,0,4.9-2.1,8.2-4.7l5.8-4.7l8.9,0.3l8.9,0.3l1.6-4.1c0.9-2.3,1.6-6.2,1.6-8.8c0-3,0.8-6,2-8
	c2.5-4.2,2.8-12,0.4-12.9c-1.1-0.4-2.5,0.4-4.2,2.4c-3.3,3.9-6.8,4.8-8.2,2.2c-1.4-2.5-2.9-2.4-11.1,0.8c-5.6,2.2-6.8,3-6.3,4.5
	c0.4,1.3-0.6,2.5-3.7,4.5c-2.4,1.5-5.8,4-7.7,5.5c-3.4,2.7-3.5,2.8-6.3,1.1c-4.3-2.5-6.7-6.5-6.7-10.9c0-5.4-1.6-6.7-5-4.3
	c-2.7,1.9-2.7,1.9-4.5,0c-3-3.3-3.7-2.3-3.3,5.3l0.3,7.2l-9,0.6c-11,0.7-12.5,1.3-12.5,4.9c0,2.7,0.2,2.8,3.8,2.3
	c2.5-0.3,4.9,0.1,6.9,1.1c2.9,1.5,3,1.9,2.6,5.9c-0.7,6.5-1.1,7.2-2.8,5.8c-0.8-0.6-3.1-1-5.2-0.9c-3.4,0.3-3.9,0.7-4.8,3.8
	c-0.6,1.9-1.6,4.5-2.3,5.7c-1.8,3.2-1.6,11,0.3,11.7c1,0.4,1.9-0.3,2.7-1.9c1.3-2.9,6.7-6.1,7.2-4.2c2,7.6,1.4,7.2,10.3,7.5l8.1,0.3
	l3.8,4.4C323.8,739.2,324.4,739.4,325.6,737z"/>
<path id="divi-68" d="M443.8,667.4c3.8-1.1,5.1-1.2,7.7-0.1c4,1.7,4.5,0.6,3.6-8.4c-0.6-6.4-0.5-6.9,1.9-8.7
	c1.4-1.1,3.2-3.4,4.2-5.2c0.9-1.8,2.3-3.2,3-3.2s3.4,1.6,6,3.5c5.5,4.2,5.9,6.7,2.1,12.2c-2.7,4-3.1,6.2-1.4,7.9
	c0.8,0.8,1.8,0.4,3.5-1.7c1.3-1.6,3.2-3.1,4.1-3.4c0.9-0.3,2.9-2.5,4.3-4.9l2.6-4.4l7.9,0.5l7.9,0.5l3.8-5.4c2.1-3,6-7.8,8.6-10.9
	s5-6.8,5.2-8.5c0.3-1.7,0.8-4,1.2-5.1c0.5-1.6,0-2.8-2-4.6c-2.2-2-2.6-3.2-2.3-6.4c0.3-3.6,0.6-3.9,3.5-4.2c2.6-0.2,3.7,0.3,6,3.2
	l2.9,3.5l3.2-2c1.8-1.1,3.2-2.5,3.2-3.2s0.9-2.4,2-3.8c1.6-2,2-4.1,2-10.3c0-7.4-0.1-7.8-2.5-8.7c-1.9-0.7-2.5-1.7-2.5-3.9
	c0-3.5-0.3-3.7-13-7.6c-5.2-1.6-9.9-3.2-10.3-3.5s0-2.3,0.9-4.2c1.4-2.9,1.5-4.3,0.6-7.8c-0.6-2.5-0.7-5.1-0.2-6.5
	c0.7-1.9-0.1-3.8-4.6-10.6c-3-4.5-5.4-8.8-5.4-9.4c0-0.7-2.8-1.2-8-1.3c-7.7-0.2-8.1-0.1-9,2.3c-0.7,1.9-1.5,2.4-3.2,2
	c-1.2-0.3-5-0.8-8.3-1.1c-5.4-0.6-6.7-1.2-12.8-6.2c-3.7-3-6.8-5.9-6.8-6.3s-1.7-1-3.8-1.1c-3.3-0.3-3.8-0.7-4.1-3.1
	c-0.2-1.6,0.5-4,1.8-5.7c3-4.2,2.6-6.6-2.3-13.1l-4.4-5.8l-2.8,2.9c-2.6,2.7-2.7,3.1-1.6,7.4c0.6,2.5,2.2,6.9,3.6,9.8
	c3.7,8.1,3.8,11.3,0.3,18.2c-1.6,3.3-4.1,7.2-5.5,8.7c-2.2,2.4-2.4,3-1.4,5.3c1.2,2.6,0.9,6.9-1,15.7c-0.9,4.3-0.8,5,1.4,8
	c1.3,1.8,2.7,4.7,3.1,6.5c0.5,2.8,0.2,3.5-2.7,5.8c-1.8,1.4-4.2,2.5-5.2,2.5c-2.5,0-3.3,0.7-7.3,5.7c-1.8,2.3-4.6,5-6.2,6
	s-4.1,3.4-5.4,5.5c-2.1,3.1-3.1,3.8-5.8,3.8c-2.1,0-4,0.8-5.1,2c-1.6,1.8-1.7,2.8-0.8,8.8c1.2,7.5,1,8.2-1.8,8.2
	c-1.2,0-2.9,1.6-4.5,4.1c-2.3,3.6-2.4,4.4-1.4,7.5c0.6,1.9,1.9,4,2.9,4.7s2.3,2.3,3,3.5c1,1.9,2,2.2,6.6,2.2c3,0,5.7,0.5,6.1,1.1
	s0.9,3.7,1.2,7c0.6,6.1,1,6.7,4.4,4.9c1.6-0.9,2.6-0.6,5.4,1.5c1.9,1.4,4,2.6,4.9,2.6c0.8,0,2.5,1.3,3.6,3c1.8,2.5,2.8,3,6.3,3
	C437.4,668.8,441.3,668.1,443.8,667.4z"/>
<path id="divi-81" d="M764.2,644.1c1.9-0.9,3.5-1.9,3.5-2.2s-6.5-8.9-14.5-19.1c-8-10.2-19.2-24.7-25-32.2
	c-10.2-13.3-10.7-13.8-14.3-13.8c-2.1,0-4.8,0.7-6,1.6c-2.1,1.5-2.9,1.4-11.3-1c-5-1.4-9.2-2.6-9.5-2.6s-0.5-0.9-0.5-1.9
	c0-2.7-1.8-3.1-14.2-3.1c-10.6,0-11.2,0.1-14.7,2.8c-2,1.6-5.8,3.4-8.5,4c-4.4,1.1-4.9,1-6.5-0.9c-1.5-1.9-2.1-2-6.4-1
	c-3.6,0.8-7.9,0.7-17.5-0.4c-22-2.5-25.9-2.6-27.3-1c-0.7,0.8-2.2,1.5-3.5,1.5s-3.7,0.3-5.4,0.6c-2.8,0.6-3.1,1-3.1,4.1
	c0,2.3-1.9,6.8-6,14.2c-5.2,9.3-6,11.4-6,16c0,5.2,0,5.3-4.2,7.1c-3,1.3-4.8,1.6-6.5,1c-2-0.8-2.3-0.6-2.3,1.5
	c0,1.4-1.1,3.3-2.6,4.4c-2.8,2.2-5.4,8.7-3,7.8c2-0.8,7.1,2.7,9.2,6.2c3.3,5.6,5,5.7,15,1.3c8.4-3.7,9.1-3.9,11.5-2.5s3.1,1.2,11-2
	c7.9-3.3,8.6-3.4,11-2s3.5,1.3,13.5-0.8c15.4-3.3,39.6-3.9,46.3-1c2.5,1.1,7.3,2.5,10.6,3.1c6,1.2,6.1,1.2,12-2.4
	c5.6-3.4,6.4-3.6,14.6-3.6h8.7l7.3,5.5c4.6,3.5,8.3,5.5,10,5.5s3.5,1,5.1,2.9c3.2,3.8,3.7,4,15.5,4.1
	C758.1,645.8,761.6,645.4,764.2,644.1z"/>
<path id="divi-54" d="M540.2,582.3c2.1-1.4,2.7-1.4,6,0l3.7,1.5l3.1-5c1.7-2.8,3.5-5,4-5s1.6-1.4,2.5-3l1.6-3l3,2.1
	c4.3,3,4.9,0.4,1.4-5.9c-1.8-3.4-2.5-5.6-2-7.2c0.4-1.4,0-3.7-1-6l-1.7-3.8l-9.3,0.6l-9.3,0.6l-0.7-6.4c-0.4-3.5-0.8-12.9-0.9-20.9
	l-0.2-14.5l3.3-4.1c2.4-3,3.4-5.5,3.9-9.6c0.4-3.7,0.3-5.8-0.5-6.2c-0.6-0.4-1.1-2.9-1.1-5.6c0-4.8-0.1-4.9-9.9-14.7l-9.9-9.8
	l-4.7-18.5c-2.6-10.2-5.3-18.8-5.9-19.2c-1.9-1.2-5.3-0.9-6.6,0.7c-0.7,0.8-2.5,1.5-4.1,1.5c-2.7,0-2.9-0.2-2.9-4.2
	c0-2.6-0.8-5.2-1.9-6.7l-1.9-2.5l-3.8,3.1c-3.2,2.6-5,3.2-11.3,3.8c-11.9,1.1-11,0-11,13.7v12l-4.5,9c-2.5,4.9-4.5,9.5-4.5,10.2
	s1.4,2.6,3,4.4c2.8,2.9,2.9,3.4,1.8,5.8c-0.9,1.9-0.9,3-0.1,3.8s1.3,0.2,1.7-2c1-4.6,2.6-5.4,6.3-3c4.6,2.9,4.5,7.6-0.4,13.5
	l-3.6,4.4l1.7,5.1c0.9,2.8,3.2,6.8,5.1,8.9c3.9,4.3,4.3,7.2,1.1,9.2c-1.8,1.2-2,1.8-1.1,2.9c0.9,1.1,0.4,2.6-2.3,7.1
	c-3.4,5.6-3.6,5.7-7.9,5.7c-2.4,0-5.6-0.4-7.2-1c-2.8-1-2.7-0.9,0.7,2.1c1.9,1.7,4.4,3.7,5.5,4.4c2.6,1.7,14.5,3.1,14.5,1.6
	c0-2.2,4.6-3.4,12.9-3.4c7.5,0,8.6,0.2,8.9,1.8c0.4,2.2,5.6,10.8,9.4,15.6c2.5,3.1,2.7,3.9,1.7,6.1c-0.8,1.8-0.9,3.9-0.2,7
	c0.7,3.2,0.6,5.3-0.2,7.4l-1.2,2.9l11.1,3.5c9.9,3.2,11.1,3.8,11.4,6C536.2,584.2,536.7,584.5,540.2,582.3z"/>
<path id="divi-13" d="M416.9,567.5c3.1-2.9,7.7-7.7,10.2-10.8c4.6-5.6,5.4-8.2,3.7-12.4c-0.6-1.5-0.1-2.8,2.1-5.3
	c3.8-4.3,7.9-12.5,7.9-15.7c0-1.4-1.2-5.4-2.7-8.8c-1.5-3.4-3.2-8.5-3.9-11.2l-1.2-5l5-5.2l5-5.2l0.5-10.4
	c0.4-9.1,0.2-10.8-1.7-14.5c-2.7-5.2-3-16.6-0.5-19.3c2-2.2,0.5-5.6-3.1-6.9c-1.6-0.6-2.4-1.7-2.4-3.2c0-2.5-2.9-4.2-9-5.4
	c-6.6-1.3-9.6-3.2-15.9-10.3c-5.5-6.2-6.7-7.1-9.8-7.1c-1.9,0-4.4-0.5-5.6-1.1c-1.5-0.8-2.7-0.8-4.7,0.1c-2.4,1.1-2.9,0.9-6.5-3.1
	c-2.1-2.4-4.7-6-5.7-8c-1.4-2.8-2.9-4-6.1-5.1l-4.3-1.4l0.4-7.1c0.3-6.8,0.1-7.5-3.8-14.7c-4.9-9-5.2-12.7-1.4-16.6
	c2.4-2.5,2.6-3,1.3-5.3c-0.7-1.4-2.2-2.8-3.2-3.1s-2.5-1.9-3.3-3.5c-1.3-2.6-1.3-3.2,0.3-6.5l1.7-3.7l-4.4-3.9
	c-2.5-2.3-5.1-3.7-6-3.4c-2.2,0.7-4.9-1-12.5-7.7l-6.6-5.8l2.1-4c1.9-3.8,2-4.2,0.4-6.6c-0.9-1.4-2-2.1-2.3-1.6
	c-0.4,0.5-1.8,1.3-3.3,1.6c-1.5,0.4-4.3,2.2-6.4,4.2c-2,1.9-4.3,3.5-5,3.5c-1,0-1.1,0.6-0.4,2.6c1.4,3.6,1.2,8.2-0.3,8.7
	c-1,0.3-1,1,0.1,3c1.2,2.3,1.2,2.9-0.7,5.5c-1.8,2.5-1.9,3.4-1,6.8c0.8,2.8,0.8,4,0,4.2c-2.2,0.7-1,2.3,3.9,5.3l5,3.1l-1.5,2.9
	c-0.8,1.6-1.5,4.2-1.5,5.9c0,2.7,0.4,3.1,4.2,3.8c4,0.8,4.2,1,4.2,4.3c0,1.9-0.4,5.4-0.9,7.8c-0.8,4.2-0.7,4.3,1.2,3.2
	c4.2-2.2,8.6-1.3,12.2,2.5c1.9,2,4.8,4.3,6.4,5.1c3.9,2,9.3,7.1,11.1,10.5c0.8,1.5,1.4,4.6,1.4,7c0,6.2,8.7,23.2,12.1,23.7
	c3.6,0.5,12.4,10.1,14.2,15.5c1.5,4.4,1.5,4.7-0.4,5.6c-3.2,1.7-2.7,10.5,0.9,16c2.8,4.2,2.8,4.4,1.3,7.9c-0.9,2-1.8,5.6-2.1,8
	c-0.6,4.3-0.7,4.4-6.6,6.6c-9,3.4-9.5,3.6-9.5,5.1c0,0.8,2.4,2.6,5.2,4c2.9,1.4,7.2,4.5,9.5,6.7c3.9,3.8,4.2,4.5,4.2,9.3
	c0,6,1.4,10.4,3.3,10.4c0.7,0,2.6,1.3,4.2,3l2.8,3l-6.2,2.7c-4.2,1.8-6,3.1-5.7,4.1c0.3,0.8,0.1,3.6-0.5,6.3c-1,4.8-1,5,1.8,7.4
	c3.9,3.4,4.9,3.2,7.8-1.5c2.1-3.3,2.9-3.9,4.3-3.1c4,2.1,4.2,3.5,1.2,7.1c-2.7,3.2-2.9,4-3,11.5c-0.1,10.4,1.8,13.4,8.3,13.3
	C410.7,572.7,412,572,416.9,567.5z"/>
<path id="divi-23" d="M292.4,542.5c2.2-2.9,6-8.8,8.4-13.2c6.1-11.3,6.6-11.8,10.3-9.9c3.9,2,5.8,1.2,5.8-2.7
	c0-2.7,0.6-3.3,3.9-4.8c2.2-0.9,4.6-2.9,5.5-4.4s3.9-5.2,6.7-8.2l5.1-5.6l2.8,1.6c2.3,1.3,3.4,1.4,6.1,0.5c1.8-0.6,4.9-1.1,6.9-1.2
	c4.6,0,5.5-0.7,7.4-5.1c1.2-2.8,2.2-3.7,4.7-4.2c1.8-0.4,6.3-1.8,10-3.3c6.3-2.5,6.8-2.9,7.2-6c0.5-3.9-1.3-4.5-3-1
	c-0.9,2.1-5,3.8-9.6,4.1c-0.5,0-1.8-2-3-4.4c-2.3-4.8-6.3-7.7-12.4-9.1c-2.7-0.6-3.9-0.5-4.7,0.6c-0.6,0.8-3.4,2.3-6.3,3.4l-5.3,2.1
	l-1-2.6c-0.5-1.4-1-3-1-3.5s-1.6-0.9-3.5-0.9c-3.2,0-3.7-0.4-5.5-4.6c-2.2-5.2-2.5-8.7-0.9-13.2c0.9-2.7,0.8-3.6-1.1-6.1l-2.1-3
	l4.3-1.9c2.4-1.1,5.1-2.2,6-2.5c1.8-0.6,3.4-6.6,2.4-9.1c-0.4-1-1.9-1.5-4.1-1.5c-2.8,0-3.8-0.5-4.7-2.5c-0.6-1.4-2-2.5-2.9-2.5
	c-1.1,0-2.7-1.6-4.1-4c-1.8-3.1-3.8-4.8-9.3-7.5c-3.9-1.9-7.8-3.7-8.7-3.9c-1-0.3-2-2-2.4-4.1c-0.5-2.8-1-3.5-2.3-2.9
	c-3.5,1.5-5.1,1.6-5.1,0.6c0-0.7-1.8-1.1-4.3-1.1c-3.3,0-4.9,0.6-6.7,2.5c-1.3,1.4-3.5,2.5-4.8,2.5c-4.3,0-11.2,8.7-11.2,14.1
	c0,1.1-1.3,3.1-3,4.5c-1.8,1.5-3.2,3.9-3.6,5.9c-0.5,2.5-1.2,3.4-2.6,3.4c-1.1,0-2.7,1.3-3.6,3c-0.9,1.6-2.5,3-3.5,3
	c-2.2,0-2.2,0.2,0.2,4.2c1.1,1.8,2,4.6,2,6.3c0,3.8,0.3,4.2,7.7,9.9c5.1,3.9,6.2,5.3,6.2,7.6c0,1.6,0.2,3.5,0.5,4.2
	s-2.2,4.7-5.5,8.8c-8.3,10.3-11.3,16.9-11.1,24.1c0.2,5-0.1,5.9-2.5,7.7c-1.9,1.5-3.1,3.8-4,7.9c-2.4,10-1.9,13.9,3.1,24.1l4.5,9.2
	h18.8h18.8L292.4,542.5z"/>
<path id="divi-20" d="M474.2,517.8c2.5-3.8,2.6-4.1,1-6.5c-1.6-2.4-1.5-2.5,1-3.7c3.3-1.5,3.3-3.5-0.1-7.1
	c-1.5-1.6-3.7-5.6-4.9-9l-2.2-6.2l3.5-4.3c2.7-3.3,3.4-5,3.2-7.5c-0.2-2.1-0.9-3.4-2.1-3.6c-1-0.2-1.8,0.1-1.8,0.7s-0.4,2.2-1,3.6
	c-0.9,2.3-1.2,2.5-3.2,1.4c-3.2-1.7-3.7-2.8-2.6-6c0.9-2.5,0.6-3.3-2.1-6.4c-1.7-1.9-3.1-3.7-3.1-4s2-4.5,4.5-9.4l4.5-9v-13.1v-13.1
	l3.3-1.4c2.9-1.2,3.6-2.3,5.6-8.7c1.8-5.5,3.6-8.8,7.6-13.3c7.5-8.7,11.5-15,11.5-18.1c0-1.7,1.1-3.9,3-5.8l3-3.1l-1.5-5.8l-1.5-5.8
	l3-3.8c2.8-3.6,3-4.4,3-11.8c0-7.5,0.2-8.1,3-10.8c1.6-1.6,3-3.1,3-3.5c0-1.2-18.2-3-20.1-2c-1.2,0.7-2,0.6-2.5-0.3
	c-0.4-0.7-1.4-2.2-2.1-3.4c-1.3-2.1-1.2-2.3,2.6-4.2c6.5-3.3,6.8-9.1,0.6-11.7c-1.8-0.8-3.6-2.3-4-3.4c-0.8-2.4-1.4-2.5-4.2-0.5
	c-2.9,2-3.7,0.4-1.9-3.9l1.5-3.5l-5.7-1.7c-5.2-1.5-6.1-1.5-10.8-0.1c-2.8,0.9-6.3,1.6-7.8,1.6s-2.7,0.5-2.7,1s1.1,1,2.5,1
	c2,0,2.5,0.5,2.5,2.6c0,1.4-0.9,3.9-2.1,5.5c-1.7,2.5-1.9,3.4-1,5.9c0.6,1.8,0.7,3.9,0.2,5.3c-0.9,2.4-5.1,5.6-7.4,5.6
	c-0.8,0-1.9,1.1-2.5,2.4c-1.1,2.4-6.4,4.3-10.6,3.8c-2.4-0.3-6.3,4.4-11,13.2c-3.4,6.4-3.7,7.4-2.8,10.7c0.7,2.3,3.7,6.3,8.5,11.2
	c5.1,5.2,7.8,8.8,8.5,11.4c0.6,2.1,1.9,5.2,3,6.8c3.4,5.1,1.7,6.2-9.1,5.9l-9.3-0.2l-3.2,3.8l-3.2,3.8l4,1.8
	c5.2,2.4,10.2,10.4,8.8,14.1c-1.1,3-1.1,3.3,0,3.3c0.5,0,2.1,0.4,3.5,1c2.5,1,2.5,1,1,5.2c-1.9,5.5-1.3,7.8,2.7,10.2
	c2.6,1.5,2.9,2.1,1.8,3c-1.8,1.4-1.3,6.6,0.6,6.6c0.8,0,2.3,1.8,3.4,3.9c1.7,3.4,1.8,4.1,0.5,5.1c-2.4,2-2,15,0.7,20.2
	c1.9,3.7,2,5.2,1.5,12.7c-0.4,4.7-0.9,10.5-1.2,12.8c-0.5,3.9-0.2,4.8,3.5,9.6c4.5,5.9,5,8.9,2.1,12.6c-1.1,1.4-2,3.5-2,4.7
	c0,1.9,0.5,2.3,3.7,2.3c2.1,0,5.1,0.7,6.8,1.4c1.6,0.8,5.1,1.4,7.6,1.5C471.2,521.8,471.7,521.5,474.2,517.8z"/>
<path id="divi-70" d="M376,475.8c0.4,0,1.4-1.4,2.3-3c1.1-2.1,2.3-3,4-3c1.4,0,2.9-0.8,3.6-2.1c0.9-1.7,0.7-2.7-1.3-5.8
	c-1.6-2.4-2.7-5.9-3.2-10.1c-0.7-5.8-0.5-6.6,1.3-8c2-1.5,2-1.6,0.1-5.8c-2.3-5.1-9.7-12.2-12.7-12.2c-3.2,0-13.3-20.7-13.3-27.2
	c0-3.6-0.6-5.2-3.6-8.6c-2-2.3-4.2-4.2-5-4.2s-3.6-2-6.3-4.5c-3.9-3.7-5.5-4.5-8.5-4.5c-2,0-4.5,0.4-5.5,1c-3,1.6-4.3-0.9-3.1-6.1
	c0.6-2.4,1-5.6,1-7.1c0-2.5-0.3-2.7-4.2-3c-4.1-0.3-4.2-0.4-4.2-3.8c0-1.9,0.4-5.1,0.7-7c0.7-3.3,0.5-3.6-3.5-6.2
	c-4.1-2.6-4.3-2.7-4.6-0.7c-0.2,1.1,0.4,2.8,1.2,3.8c2,2.2,2,2.8-0.4,7.4c-1.1,2.1-2.3,5.9-2.7,8.5c-0.4,3-1.3,5.2-2.6,6.1
	c-1.1,0.8-1.5,1.7-1.1,2c0.5,0.3,2.3,2.5,4.1,4.8c2.8,3.6,3.2,4.7,2.6,8c-0.6,3.7-6.3,11.3-8.4,11.3c-0.6,0-0.6,0.9-0.2,2.1
	c0.5,1.3,2.6,2.8,5.4,3.9c7,2.6,11.4,5.7,13.8,9.5c1.2,2,2.9,3.4,4.1,3.4c1.1,0,2.4,1.1,3.1,2.5c0.8,1.7,1.9,2.5,3.8,2.5
	c1.4,0,3.6,0.7,4.7,1.5c1.8,1.3,2,2.2,1.6,6.2c-0.7,6.5-1.6,7.9-5.5,8.7c-5.6,1.1-6.4,2-4.4,5c1.3,1.9,1.4,3.1,0.7,4.5
	c-1.3,2.5-1.3,8.9,0,12.9c0.9,2.6,1.7,3.1,4.7,3.4s3.8,0.8,4.7,3.5l1.1,3.1l3.8-1.5c2.1-0.8,3.8-2.1,3.8-2.8c0-2.2,1.4-2.4,7.1-1.1
	c7.7,1.8,13.5,5.7,14.9,10.2c1,3,1.6,3.5,3.3,3.1C374.3,476.1,375.6,475.8,376,475.8z"/>
<path id="divi-47" d="M434.1,425.5c-2.8-3.1-3.4-6.3-1.8-10.2c1.4-3.3,1.4-3.4-1.6-4c-3.8-0.8-4.3-1.7-2.9-4.9
	c1-2.2,0.8-3.2-1.2-7c-1.8-3.4-3.6-5-7.9-7.1l-5.5-2.7l3-2.5c1.6-1.4,3.7-3.6,4.6-5c1.5-2.3,2.2-2.5,11.3-2.5c9.5,0,9.6-0.1,8.3-2.1
	c-0.7-1.2-2.1-4.2-3.1-6.8c-1.2-3.1-4.2-7.1-9-12.1c-5.3-5.4-7.6-8.5-8.3-11.4c-0.9-3.7-0.7-4.5,3.3-11.9c5.7-10.6,11.1-17,13-15.5
	c2.3,1.9,7.3,0.2,9-3.1c1-2,2.3-2.9,3.8-2.9c1.3,0,3.1-0.9,4.1-2c1.5-1.6,1.6-2.6,0.8-5.9c-0.8-3.2-0.7-4.3,0.8-6.3
	c1-1.3,1.8-3.4,1.9-4.6c0-1.8-0.5-2.2-2.9-2.2c-3.9,0-4.6-1.4-2-3.9l2.1-2l-2.3-3.6c-2.7-4.3-2.4-9.5,0.9-19c1.1-3.2,2.1-6,2.1-6.2
	s-3-0.3-6.6-0.3c-5.6,0-7.9-0.6-15.1-4c-6.5-3-8.9-3.8-10.3-3c-1,0.5-2.9,1-4.2,1c-1.3,0-3.8,1.3-5.6,2.8l-3.3,2.7l1,6.4
	c1,6.4,1,6.4-2.2,10.6c-3,3.9-3.7,4.2-9,4.8c-3.2,0.3-6.8,0.2-8-0.3c-9.4-3.9-23-9-23.8-9c-0.6,0,0.5,1.9,2.5,4.3
	c4.6,5.7,5.8,8.9,5.8,16.7c0.1,8.3-1.7,14.5-5.5,19.4c-1.8,2.4-3.3,5.8-3.8,8.7c-0.4,2.6-1.9,7.6-3.4,11.1s-2.9,7-3.1,7.9
	c-0.3,1,1.3,3.4,4.1,6.3c2.5,2.6,4.6,5.3,4.6,6s-1.1,2.3-2.5,3.6c-3.5,3.3-3.2,7.1,1.4,16.4c3.6,7.2,3.8,8.3,3.4,14.2l-0.5,6.3
	l4.3,1.3c3.4,1,4.6,2,5.9,4.9c0.9,2,3,5.3,4.7,7.3c2.7,3.3,3.4,3.6,5.6,2.8c1.5-0.6,3.1-0.6,3.9-0.1s3.3,0.9,5.5,0.9
	c3.8,0,4.6,0.6,11.7,8c6.1,6.3,8.5,8.2,11.9,9c2.3,0.6,5.6,1.5,7.3,1.9C436,428.1,436.3,427.9,434.1,425.5z"/>
<path id="divi-8" d="M363.1,323.4c0.9-2.9,1.7-6.4,1.7-7.6s1.4-4.1,3.2-6.3c5.6-7,7.5-20.7,4-27.8
	c-2.5-5.1-7.5-11.9-8.9-11.9c-0.6,0-2.5,1.5-4.1,3.3s-3.7,3.6-4.6,4s-2.2,1.7-2.7,3c-0.6,1.3-3.2,3.6-5.7,5.2
	c-2.6,1.6-6.6,4.4-8.9,6.3l-4.2,3.4l2.3,4.1c2.3,4.1,2.3,4.1,0.5,7.6l-1.9,3.5l5.1,4.6c7.1,6.4,8.6,7.4,10.8,6.8
	c1.3-0.3,3.3,0.8,6.2,3.4c2.3,2.1,4.5,3.9,4.8,3.9C361.2,328.8,362.2,326.4,363.1,323.4z"/>
<path id="divi-44" d="M497.9,317.8c1.9,0.5,6.6,1,10.6,1c8.5,0,8.1,0.3,13.8-13.5c7.4-18,13-27.9,19.1-33.8
	c5.1-5,6.3-5.6,9.9-5.6h4.1l9.8-18.8l9.8-18.8l22.5-7.4c12.4-4.1,22.9-7.9,23.3-8.4c0.4-0.6,0.7-2.2,0.8-3.8c0-2.4,0.4-2.8,3-2.8
	c1.7,0,3.5-0.8,4.2-1.8s3-2.8,5.1-4.1s3.7-3,3.7-4c0-0.9-1.6-4.3-3.5-7.5s-3.5-6.6-3.5-7.7c0-2.9-2.4-4.7-9.7-7.1
	c-3.7-1.2-7.4-3.1-8.3-4.1c-1.1-1.3-3.5-2.1-7.8-2.5c-6.2-0.6-6.2-0.6-6.2,1.9c0,2.6-2.9,4.5-5,3.2c-0.6-0.3-1-0.1-1,0.5
	c0,1.4-4,4.9-5.8,4.9c-0.7,0-1.2-0.6-1.2-1.5c0-1.2-0.4-1.3-1.9-0.3c-1.7,1.1-1.8,1.4-0.3,5c0.8,2.1,1.3,4,1.1,4.1s-1.9,1.3-3.7,2.6
	c-2.9,2.1-3.7,2.2-6.2,1.1c-3.1-1.3-3.7-2.8-1.7-4.8c1.4-1.4-0.9-1.6-6.2-0.6c-3.2,0.6-3.2,0.7-2.6,5.2c0.9,6.8-4.5,17-12.4,23.4
	c-5.2,4.2-7.7,5.3-22.1,9.8c-14.9,4.6-16.7,5.4-20.8,9.4c-2.5,2.4-7.2,6.4-10.5,8.9s-8,6.6-10.3,9.2c-3.8,4.1-5.1,4.9-11,6.1
	c-3.7,0.8-9.7,1.7-13.3,2.1L457,258l-2.1,7.3c-2.6,9.1-2.7,14-0.1,18.2c2.3,3.7,4,4,11.3,1.8c4.4-1.3,5.2-1.3,11.5,0.8
	c6,2,6.7,2.5,6.4,4.6c-0.2,1.4,0.1,2.1,0.7,1.7s1.8,0.8,2.6,2.5s3.1,3.7,4.9,4.5c6.4,2.7,6.7,11.9,0.4,15.1
	c-1.5,0.8-2.8,1.8-2.8,2.3c0,1.6,1.3,2.1,3,1.1C493.9,317.2,495.8,317.2,497.9,317.8z"/>
<path id="divi-88" d="M178.9,103.7c-6.3,0-11.9,1.7-13.4,4c-0.7,1-1.7,1.9-2.4,1.9c-2.4,0-2.5,2.1-0.3,5.6
	c2.7,4.4,2,5.3-2.6,3.1c-4.6-2.1-6.7-2.1-6.3,0.1c0.1,1,2.8,3,5.9,4.5c5,2.4,5.5,3,5.1,5.3c-0.3,1.8-0.9,2.4-2,2
	c-1.9-0.7-8.2,1.3-8.2,2.7c0,0.6,0.7,1.6,1.6,2.2c1.1,0.8,2,4.6,3,12.6c1.8,14.9,1.9,14.1-2.1,16.7l-3.5,2.3v8.2
	c0,9.8-1.1,14.2-4.4,17.7c-4.7,4.9-7.4,12.8-8.1,23.6c-0.6,9.2-1,10.8-5.6,20.5c-7.2,15.3-10.8,22.2-13,25c-1.4,1.7-3,2.6-5.2,2.7
	c-3.2,0.1-3.7-0.2-6.9-6.1c-1.9-3.4-3.3-7.1-3.1-8.1s0.6-3.4,0.9-5.3c0.3-2.1,2.4-5.7,5-8.9l4.4-5.4l-0.7-6.1
	c-0.4-3.3-0.5-7.3-0.4-8.8c0.2-1.6,0.4-6.4,0.5-10.8c0.1-5.5,0.6-8,1.4-8c1.3,0,3.3-3.1,3.3-4.9c0-0.6-1.5-1.4-3.4-1.7
	c-1.9-0.3-4.2-1.5-5.1-2.5c-1-1-2.1-1.6-2.6-1.3c-1.4,0.8-1-3.7,0.7-8.6c0.8-2.5,1.8-6.7,2.1-9.4c0.3-3,1.3-5.6,2.5-6.7
	c1.8-1.8,1.8-2.1,0.3-6.6c-2.3-6.8-2.1-12.6,0.5-15c1.2-1.1,3.9-4.4,6.1-7.3c4.2-5.6,6.8-14.3,6.8-22.9c0-4.4,2.3-9.2,4.4-9.2
	c0.6,0,5.8-4.5,11.6-10s11.2-10,12-10s2.3,1.1,3.4,2.5c1.1,1.4,2.6,3.4,3.5,4.4c0.9,1,2.7,3.2,4,4.9c1.7,2.1,3.3,3.1,5.1,3.1
	c1.5,0,3.6,0.8,4.7,1.9c1.1,1.1,3.5,2.2,5.2,2.6C189.6,101.5,186.7,103.7,178.9,103.7z M275.8,130.5c-3.8,1.5-4.2,1.5-6-0.2
	c-2.6-2.4-2.5-3.9,0.6-5.3c2.4-1.1,2.5-1.3,1-3.4c-2.1-3-2.1-13.1-0.1-14.8c2-1.7,1.9-3-0.2-3c-2.2,0-7.3-4.9-7.3-7.1
	c0-0.9-0.7-2.3-1.5-2.9c-1.2-1-1.5-1-1.5,0.4c0,0.9-1.1,1.9-2.5,2.2c-2.2,0.5-2.5,1.2-2.8,6.2l-0.3,5.6l-5.9,3.9l-5.9,3.9l-3.3-1.8
	c-3.3-1.8-3.4-1.8-8.1,0.6c-4.1,2.1-5.2,3.3-7.9,8.9c-4.2,8.7-5.9,14.3-6.6,21.5c-0.3,3.3-0.8,7-1,8.2c-0.3,1.2,0.2,2.7,0.9,3.4
	c0.8,0.7,1.4,1.8,1.4,2.6c0,0.8,0.9,4,2,7.1c2.4,6.9,2.4,7.3,0.4,7.3c-1.3,0-1.5,0.7-1,3.2c0.6,2.9,2.9,5.8,4.6,5.8
	c0.4,0,1.5-0.9,2.4-1.9c1.1-1.2,4.3-2.4,8.8-3.2c6.2-1.1,7.3-1.7,10-5c3.3-4.1,9-6.9,14.1-6.9c3.8,0,4.6-0.5,7.5-4.6
	c1.7-2.4,2.5-5.8,3.4-14.7l1.2-11.6l3.8-1.5c2.1-0.8,3.8-2.2,3.8-3C279.8,129.1,279.3,129.1,275.8,130.5z M250.7,90.6
	c1.4-1.5,1.7-2.4,0.9-2.9c-0.8-0.5-0.7-2,0.4-5.3c1.5-4.5,1.5-4.6-0.5-4.6c-5.2,0-10,2.4-11.6,5.7c-1.5,3.2-1.5,3.4,1.3,6.3
	C244.7,93.3,247.9,93.6,250.7,90.6z"/>
<path id="divi-5" d="M291,686.8c3-1.1,7.7-2,10.9-2h5.6l-0.1-7.8c-0.1-7.2,0-7.7,1.9-7.4c1.1,0.2,2.9,1.2,4,2.2
	c2,1.8,2.1,1.8,4.5,0c2.5-1.9,2.5-1.9,5.2,0.7c2.1,2,2.8,3.6,2.8,6.7c0,2.2,0.6,4.8,1.2,5.6c1.7,2.3,5.5,4.1,6.2,3
	c0.3-0.5,3-2.5,6-4.5c3.9-2.6,5.4-4.2,5.3-5.6c-0.2-1.6,1.4-2.6,8.3-5.4c10-4.1,11.3-4.2,13.4-1.3l1.6,2.2l3.3-3.8
	c2.4-2.8,3.8-3.6,5.1-3.1c1.4,0.5,1.7,0.3,1.5-1.2c-0.2-1.1,0.6-3.2,1.8-4.7c3.1-3.9,4.8-12.3,3-15.1c-3.3-5.1-2.9-7,2.6-13.2
	c2.9-3.2,6-7.1,7-8.6s2.4-2.8,3.2-2.8c1.2,0,1.3-1,0.9-4.8c-0.3-2.6-0.8-5.4-1-6.2c-0.7-2.3,5.6-8.1,8.8-8.1c1.9,0,3.3-0.8,4.4-2.5
	c0.9-1.4,3.4-3.8,5.5-5.4c2.1-1.6,5.5-4.9,7.4-7.5c2.2-2.9,4.3-4.6,5.6-4.6c3.3,0,7.9-3.2,7.9-5.5c0-1.1-1.4-3.9-3-6.2
	c-2.6-3.5-2.9-4.5-2-6.8c2.7-7,0.9-6.4-8.4,3l-9.4,9.5h-5.1c-4.9,0-5.2-0.2-8.1-4.4c-2.7-4-3-5.2-3-12.1c0-6.6,0.3-8.1,2.5-10.9
	c2.7-3.5,3-4.6,1.6-4.6c-0.5,0-1.8,1.6-3,3.5s-2.9,3.5-3.8,3.5c-1,0-3.7-1.7-6-3.8l-4.2-3.7l1.1-4.5c0.6-2.5,0.8-5.7,0.5-7.3
	c-0.5-2.6-0.1-3,4.9-5.2c3-1.3,5.5-2.7,5.5-3s-1.4-1.2-3.2-1.9c-3.6-1.5-5.8-6.9-5.8-14.1c0-4.9-3.6-8.8-11.8-12.9
	c-2.9-1.4-5.8-3.5-6.5-4.6c-1.8-2.9-2.6-2.5-4.7,2.4l-1.9,4.3l-6.6,0.6c-3.6,0.3-7.5,1.1-8.6,1.7c-1.5,0.8-2.7,0.7-4.8-0.4
	c-2.8-1.4-2.9-1.4-7.3,3.7c-2.4,2.8-5.2,6.3-6.1,7.8c-0.9,1.4-3,3.2-4.8,3.9c-2.5,1-3.1,1.9-3.1,4.1c0,4-4.4,6.4-8,4.3
	c-1.4-0.8-2.7-1.4-3.1-1.4c-0.3,0-2.8,4-5.5,9s-7.1,11.7-9.7,15l-4.8,5.9h-19.4h-19.4l-4.7-9.2c-2.6-5.2-5-11.5-5.4-14.2
	c-1-6.9,1.5-18.3,4.6-21.1c1.8-1.6,2.4-3.4,2.6-7.5c0.3-7.2,3.6-14.4,10.9-23.9c5.8-7.6,7.3-11.6,5.3-14.5c-0.4-0.6-3.5-3.2-7-5.8
	c-5.3-4-6.2-5.2-6.2-7.8c0-3-2.7-9.8-3.9-9.8c-0.3,0-5.7,3.8-12,8.5l-11.3,8.5l-4.1-1.1c-3.9-1.1-4.1-1-6.9,2.2
	c-2.9,3.4-3.8,5.5-1.8,4.3c1.6-1,7.9,2.8,7.9,4.7c0,0.9,0.7,2.1,1.5,2.6c1.1,0.6,1.9,4.7,3,14.8c0.8,7.7,1.8,14.6,2.1,15.4
	s-0.5,3.8-1.8,6.7c-1.9,4.4-2.9,5.4-6,6.3c-3.2,1-4.2,0.8-7.5-1.1c-2.1-1.2-4-2.3-4.2-2.5c-1-0.7,2.6-6.9,5.8-9.9
	c2.8-2.6,3.3-3.6,2.4-4.6c-1-1-1.6-0.9-3.1,0.5c-1,0.9-2.3,1.7-2.9,1.7c-1.2,0-2.3,2.3-2.3,5.1c0,3-3.8,13.1-6.1,16.3
	c-2.9,4-1.7,5.8,8.7,13.1c6,4.2,10.2,8.2,14.2,13.5c4.7,6.2,6.3,7.6,9.1,8c2.5,0.4,4.4,1.7,7.3,5.1c4.4,5.2,4.9,8.5,2.8,17.9
	c-2,8.8-1.6,8.4-5.2,6.2c-1.9-1.2-6-2.2-9.9-2.5l-6.7-0.6l1.4,3.9c1.3,3.6,1.2,4-0.9,6c-1.4,1.3-3.6,2.1-5.9,2.1
	c-4.1,0-5.7,1.9-5.7,6.7c0,3.6,2.5,7.5,9,14.2c5.5,5.7,5.7,6.6,3.5,15.3c-0.5,1.9,0.2,4.1,2.5,8.2l3.2,5.6l6.2-0.2
	c3.4-0.1,7.1-0.7,8.2-1.4s6.3-1.4,11.5-1.6l9.5-0.3l0.3,6.5c0.4,7.6,1.3,9,5.8,9c1.8,0,3.5,0.3,3.7,0.8s0,4.5-0.5,9
	c-0.8,7-0.7,8.6,0.6,10.7c0.9,1.3,1.6,3.9,1.6,5.7s0.9,4.4,2,5.8s2,3.4,2,4.5C276.8,689.2,284.1,689.4,291,686.8z"/>
<path id="divi-88_frame" d="M90,172.4V66.9h52.5H195v105.5v105.5h-52.5H90V172.4z M193,172.4V68.9h-50.5H92v103.5
	v103.5h50.5H193V172.4z M202.7,200.2c-0.4-0.4-0.7-30.3-0.7-66.5V67.9h48.5H299l-0.3,66.2l-0.3,66.2l-47.6,0.3
	C224.8,200.8,203.1,200.6,202.7,200.2z M297,133.9v-65h-46.5H204v65v65h46.5H297V133.9z"/>
</svg>
